<svg xmlns="http://www.w3.org/2000/svg" xmlns:xlink="http://www.w3.org/1999/xlink" width="7920" height="366.84"><defs><linearGradient id="e"><stop offset="0" stop-color="#ffb402"/><stop offset="1" stop-color="#ffb402" stop-opacity="0"/></linearGradient><linearGradient id="b"><stop offset="0" stop-color="#ffb402"/><stop offset="1" stop-color="#2a2a85"/></linearGradient><linearGradient id="a"><stop offset="0" stop-color="#225eff"/><stop offset=".25" stop-color="#4381ff"/><stop offset=".5" stop-color="#63a2ff"/><stop offset=".75" stop-color="#63a2ff"/><stop offset="1" stop-color="#acdeff"/></linearGradient><linearGradient id="c"><stop offset="0" stop-color="#225eff"/><stop offset=".25" stop-color="#2c71ff"/><stop offset=".5" stop-color="#5096ff"/><stop offset=".75" stop-color="#88b8ff"/><stop offset="1" stop-color="#ffb402"/></linearGradient><linearGradient id="d"><stop offset="0" stop-color="#0033bc"/><stop offset=".125" stop-color="#0038cf"/><stop offset=".25" stop-color="#003ee6"/><stop offset=".5" stop-color="#074bff"/><stop offset="1" stop-color="#225eff"/></linearGradient><clipPath id="fg"><path fill="#5d7182" d="M-18961.655-1870.677l42651.432-306.792 24.166 3359.657-42651.432 306.792z"/></clipPath><clipPath id="ff"><path fill="#5d7182" d="M893.53-110.777h5917.753v459.68H893.53z"/></clipPath><clipPath id="fe"><path fill="#5d7182" d="M783.91 664.53h-7920v380.674h7920z"/></clipPath><clipPath id="fd"><path fill="#5d7182" d="M1294.194 684.53h-7920v380.674h7920z"/></clipPath><clipPath id="fc"><path fill="#5d7182" d="M1294.194 684.53h-7920v380.674h7920z"/></clipPath><clipPath id="fb"><path fill="#5d7182" d="M6350.556-2335.92l-79006.9 568.276 26.605 3698.88L6377.163 1362.96z"/></clipPath><clipPath id="fa"><path fill="#5d7182" d="M6821.036-2311.54l-79006.9 568.275 26.605 3698.88L6847.643 1387.34z"/></clipPath><clipPath id="eZ"><path fill="#5d7182" d="M1294.194 684.53h-7920v380.674h7920z"/></clipPath><clipPath id="eY"><path fill="#5d7182" d="M4167.412-1533.266l-42651.43 306.792 24.165 3359.656 42651.43-306.792z"/></clipPath><clipPath id="eX"><path fill="#5d7182" d="M4167.412-1533.266l-42651.43 306.792 24.165 3359.656 42651.43-306.792z"/></clipPath><clipPath id="eW"><path fill="#5d7182" d="M1294.194 684.53h-7920v380.674h7920z"/></clipPath><clipPath id="eV"><path fill="#5d7182" d="M1294.194 684.53h-7920v380.674h7920z"/></clipPath><clipPath id="eU"><path fill="#5d7182" d="M4167.412-1533.266l-42651.43 306.792 24.165 3359.656 42651.43-306.792z"/></clipPath><clipPath id="eT"><path fill="#5d7182" d="M1294.194 684.53h-7920v380.674h7920z"/></clipPath><clipPath id="eS"><path fill="#5d7182" d="M-5694.63-1091.24l57034.768-410.253L52521.896 511.79-4512.87 922.042z"/></clipPath><clipPath id="eR"><path fill="#5d7182" d="M-265.457 684.53h7920v380.674h-7920z"/></clipPath><clipPath id="eQ"><path fill="#5d7182" d="M-265.457 684.53h7920v380.674h-7920z"/></clipPath><clipPath id="eP"><path fill="#5d7182" d="M-10391.053-2257.147l79006.9-568.276 26.607 3698.88-79006.9 568.276z"/></clipPath><clipPath id="eO"><path fill="#5d7182" d="M-9207.93-2224.012l79006.9-568.276 26.607 3698.88-79006.9 568.276z"/></clipPath><clipPath id="eN"><path fill="#5d7182" d="M-8737.45-2199.632l79006.9-568.276 26.607 3698.88-79006.902 568.276z"/></clipPath><clipPath id="eM"><path fill="#5d7182" d="M-265.457 684.53h7920v380.674h-7920z"/></clipPath><clipPath id="eL"><path fill="#5d7182" d="M-4231.748-1472.85l42651.43-306.793 24.167 3359.656-42651.432 306.792z"/></clipPath><clipPath id="eK"><path fill="#5d7182" d="M-265.457 684.53h7920v380.674h-7920z"/></clipPath><clipPath id="eJ"><path fill="#5d7182" d="M-265.457 684.53h7920v380.674h-7920z"/></clipPath><clipPath id="eI"><path fill="#5d7182" d="M-4231.748-1472.85l42651.43-306.793 24.167 3359.656-42651.432 306.792z"/></clipPath><clipPath id="eH"><path fill="#5d7182" d="M-265.457 684.53h7920v380.674h-7920z"/></clipPath><clipPath id="eG"><path fill="#5d7182" d="M2743.908 686.53h-7920v380.674h7920z"/></clipPath><clipPath id="eF"><path fill="#5d7182" d="M2441.908 726.53h-7920v380.674h7920z"/></clipPath><clipPath id="eE"><path fill="#5d7182" d="M2441.908 664.53h-7920v380.674h7920z"/></clipPath><clipPath id="eD"><path fill="#5d7182" d="M2703.908 644.53h-7920v380.674h7920z"/></clipPath><clipPath id="eC"><path fill="#5d7182" d="M-107.394 660.245h7920v380.673h-7920z"/></clipPath><clipPath id="eB"><path fill="#5d7182" d="M-295.966 664.53h7920v380.674h-7920z"/></clipPath><clipPath id="eA"><path fill="#5d7182" d="M-171.68 684.53h7920v380.674h-7920z"/></clipPath><clipPath id="ez"><path fill="#5d7182" d="M-171.68 684.53h7920v380.674h-7920z"/></clipPath><clipPath id="ey"><path fill="#5d7182" d="M-9455.567-2263.876l79006.9-568.276 26.607 3698.88-79006.9 568.276z"/></clipPath><clipPath id="ex"><path fill="#5d7182" d="M-8272.444-2230.74l79006.9-568.277 26.607 3698.88-79006.9 568.277z"/></clipPath><clipPath id="ew"><path fill="#5d7182" d="M-171.68 684.53h7920v380.674h-7920z"/></clipPath><clipPath id="ev"><path fill="#5d7182" d="M-3726.732-1476.483l42651.43-306.792 24.167 3359.656-42651.43 306.793z"/></clipPath><clipPath id="eu"><path fill="#5d7182" d="M-3726.732-1476.483l42651.43-306.792 24.167 3359.656-42651.43 306.793z"/></clipPath><clipPath id="et"><path fill="#5d7182" d="M-171.68 684.53h7920v380.674h-7920z"/></clipPath><clipPath id="es"><path fill="#5d7182" d="M-171.68 684.53h7920v380.674h-7920z"/></clipPath><clipPath id="er"><path fill="#5d7182" d="M-3726.732-1476.483l42651.43-306.792 24.167 3359.656-42651.43 306.793z"/></clipPath><clipPath id="eq"><path fill="#5d7182" d="M-171.68 684.53h7920v380.674h-7920z"/></clipPath><clipPath id="ep"><path fill="#5d7182" d="M-171.68 684.53h7920v380.674h-7920z"/></clipPath><clipPath id="eo"><path fill="#5d7182" d="M2398.48 660.245h-7920v380.673h7920z"/></clipPath><clipPath id="en"><path fill="#5d7182" d="M2969.908 664.53h-7920v380.674h7920z"/></clipPath><clipPath id="em"><path fill="#5d7182" d="M18499.43-1265.268l-57034.767 410.254 1181.758 2013.282 57034.767-410.254z"/></clipPath><clipPath id="el"><path fill="#5d7182" d="M3094.194 684.53h-7920v380.674h7920z"/></clipPath><clipPath id="ek"><path fill="#5d7182" d="M14314.336-1725.568l-75109.37 540.263 1556.264 2651.302L15870.6 925.734z"/></clipPath><clipPath id="ej"><path fill="#5d7182" d="M15542.078-2443.677l-79006.9 568.275 26.605 3698.88 79006.9-568.275z"/></clipPath><clipPath id="ei"><path fill="#5d7182" d="M24306.67-2465.074l-79006.9 568.276 26.606 3698.88 79006.9-568.275z"/></clipPath><clipPath id="eh"><path fill="#5d7182" d="M24777.15-2440.694l-79006.902 568.276 26.606 3698.88 79006.9-568.276z"/></clipPath><clipPath id="eg"><path fill="#5d7182" d="M14314.336-1725.568l-75109.37 540.263 1556.264 2651.302L15870.6 925.734z"/></clipPath><clipPath id="ef"><path fill="#5d7182" d="M3094.194 684.53h-7920v380.674h7920z"/></clipPath><clipPath id="ee"><path fill="#5d7182" d="M13860.92-1602.992L-28790.512-1296.2l24.166 3359.657 42651.432-306.792z"/></clipPath><clipPath id="ed"><path fill="#5d7182" d="M3094.194 684.53h-7920v380.674h7920z"/></clipPath><clipPath id="ec"><path fill="#5d7182" d="M3094.194 684.53h-7920v380.674h7920z"/></clipPath><clipPath id="eb"><path fill="#5d7182" d="M13860.92-1602.992L-28790.512-1296.2l24.166 3359.657 42651.432-306.792z"/></clipPath><clipPath id="ea"><path fill="#5d7182" d="M3094.194 684.53h-7920v380.674h7920z"/></clipPath><clipPath id="dZ"><path fill="#5d7182" d="M1829.908 664.53h-7920v380.674h7920z"/></clipPath><clipPath id="dY"><path fill="#5d7182" d="M1954.194 684.53h-7920v380.674h7920z"/></clipPath><clipPath id="dX"><path fill="#5d7182" d="M10710.604-1699.646l-75109.37 540.263 1556.264 2651.3 75109.37-540.26z"/></clipPath><clipPath id="dW"><path fill="#5d7182" d="M11751.342-2416.412l-79006.9 568.276 26.605 3698.88 79006.9-568.275z"/></clipPath><clipPath id="dV"><path fill="#5d7182" d="M12934.465-2383.276L-66072.435-1815l26.605 3698.88 79006.9-568.276z"/></clipPath><clipPath id="dU"><path fill="#5d7182" d="M10710.604-1699.646l-75109.37 540.263 1556.264 2651.3 75109.37-540.26z"/></clipPath><clipPath id="dT"><path fill="#5d7182" d="M1954.194 684.53h-7920v380.674h7920z"/></clipPath><clipPath id="dS"><path fill="#5d7182" d="M7721.698-1558.832l-42651.43 306.792 24.165 3359.656 42651.43-306.792z"/></clipPath><clipPath id="dR"><path fill="#5d7182" d="M1954.194 684.53h-7920v380.674h7920z"/></clipPath><clipPath id="dQ"><path fill="#5d7182" d="M7721.698-1558.832l-42651.43 306.792 24.165 3359.656 42651.43-306.792z"/></clipPath><clipPath id="dP"><path fill="#5d7182" d="M1954.194 684.53h-7920v380.674h7920z"/></clipPath><clipPath id="dO"><path fill="#5d7182" d="M1954.194 684.53h-7920v380.674h7920z"/></clipPath><clipPath id="dN"><path fill="#5d7182" d="M-2001.17 660.245h7920v380.673h-7920z"/></clipPath><clipPath id="dM"><path fill="#5d7182" d="M-18657.077-998l57034.767-410.253L39559.448 605.03l-57034.766 410.253z"/></clipPath><clipPath id="dL"><path fill="#5d7182" d="M-2065.457 684.53h7920v380.674h-7920z"/></clipPath><clipPath id="dK"><path fill="#5d7182" d="M-2065.457 684.53h7920v380.674h-7920z"/></clipPath><clipPath id="dJ"><path fill="#5d7182" d="M-28347.166-2127.994l79006.9-568.275 26.607 3698.88-79006.9 568.277z"/></clipPath><clipPath id="dI"><path fill="#5d7182" d="M-27164.044-2094.858l79006.902-568.276 26.606 3698.88-79006.9 568.276z"/></clipPath><clipPath id="dH"><path fill="#5d7182" d="M-26693.565-2070.48l79006.9-568.275 26.607 3698.88-79006.9 568.277z"/></clipPath><clipPath id="dG"><path fill="#5d7182" d="M-2065.457 684.53h7920v380.674h-7920z"/></clipPath><clipPath id="dF"><path fill="#5d7182" d="M-13925.257-1403.125l42651.432-306.792 24.166 3359.656-42651.43 306.79z"/></clipPath><clipPath id="dE"><path fill="#5d7182" d="M-13925.257-1403.125l42651.432-306.792 24.166 3359.656-42651.43 306.79z"/></clipPath><clipPath id="dD"><path fill="#5d7182" d="M-2065.457 684.53h7920v380.674h-7920z"/></clipPath><clipPath id="dC"><path fill="#5d7182" d="M-2065.457 684.53h7920v380.674h-7920z"/></clipPath><clipPath id="dB"><path fill="#5d7182" d="M-13925.257-1403.125l42651.432-306.792 24.166 3359.656-42651.43 306.79z"/></clipPath><clipPath id="dA"><path fill="#5d7182" d="M-2065.457 684.53h7920v380.674h-7920z"/></clipPath><clipPath id="dz"><path fill="#5d7182" d="M2889.968-1417.685H1380v657.536h1509.968z"/></clipPath><clipPath id="S"><path fill="#5d7182" d="M1369.6-103.877h5917.75v459.68H1369.6z"/></clipPath><clipPath id="dy"><path fill="#5d7182" d="M-3585 564.666h7920V945.34h-7920z"/></clipPath><clipPath id="dx"><path fill="#5d7182" d="M-61900.23-10151.206l109259.104-785.872 70.408 9788.466L-61829.82-362.74z"/></clipPath><clipPath id="dw"><path fill="#5d7182" d="M-3000 627.452h7920v380.673h-7920z"/></clipPath><clipPath id="dv"><path fill="#5d7182" d="M-61900.23-10151.206l109259.104-785.872 70.408 9788.466L-61829.82-362.74z"/></clipPath><clipPath id="du"><path fill="#5d7182" d="M-3000 627.452h7920v380.673h-7920z"/></clipPath><clipPath id="dt"><path fill="#5d7182" d="M32154.27-2500.13l-62846.472 452.056 1677.718 2858.215 62846.472-452.054z"/></clipPath><clipPath id="ds"><path fill="#5d7182" d="M3000 627.452h-7920v380.673h7920z"/></clipPath><clipPath id="dr"><path fill="#5d7182" d="M32154.27-2500.13l-62846.472 452.056 1677.718 2858.215 62846.472-452.054z"/></clipPath><clipPath id="dq"><path fill="#5d7182" d="M3000 627.452h-7920v380.673h7920z"/></clipPath><clipPath id="dp"><path fill="#5d7182" d="M-64698.213 1315.28L68033.553 360.537l-606.305-1032.92L-65304.518 282.36z"/></clipPath><clipPath id="do"><path fill="#5d7182" d="M67913.427 361.4L-64818.34 1316.145l-606.304-1032.92L67307.122-671.52z"/></clipPath><clipPath id="dn"><path fill="#5d7182" d="M-3000-627.452h7920v-380.673h-7920z"/></clipPath><clipPath id="dm"><path fill="#5d7182" d="M-3000 627.452h7920v380.673h-7920z"/></clipPath><clipPath id="dl"><path fill="#5d7182" d="M-3000 627.452h7920v380.673h-7920z"/></clipPath><clipPath id="dk"><path fill="#5d7182" d="M66868.452-1418.853L-65863.315-464.11l606.305 1032.92L67474.756-385.933z"/></clipPath><clipPath id="dj"><path fill="#5d7182" d="M-65743.19-464.974l132731.767-954.743 606.305 1032.92-132731.766 954.743z"/></clipPath><clipPath id="di"><path fill="#5d7182" d="M-3000 627.452h7920v380.673h-7920z"/></clipPath><clipPath id="dh"><path fill="#5d7182" d="M-64698.213 1315.28L68033.553 360.537l-606.305-1032.92L-65304.518 282.36z"/></clipPath><clipPath id="dg"><path fill="#5d7182" d="M67913.427 361.4L-64818.34 1316.145l-606.304-1032.92L67307.122-671.52z"/></clipPath><clipPath id="df"><path fill="#5d7182" d="M-3000-627.452h7920v-380.673h-7920z"/></clipPath><clipPath id="de"><path fill="#5d7182" d="M-3000 627.452h7920v380.673h-7920z"/></clipPath><clipPath id="dd"><path fill="#5d7182" d="M-3000 627.452h7920v380.673h-7920z"/></clipPath><clipPath id="dc"><path fill="#5d7182" d="M66868.452-1418.853L-65863.315-464.11l606.305 1032.92L67474.756-385.933z"/></clipPath><clipPath id="db"><path fill="#5d7182" d="M-65743.19-464.974l132731.767-954.743 606.305 1032.92-132731.766 954.743z"/></clipPath><clipPath id="da"><path fill="#5d7182" d="M-3000 627.452h7920v380.673h-7920z"/></clipPath><clipPath id="cZ"><path fill="#5d7182" d="M-64698.213 1315.28L68033.553 360.537l-606.305-1032.92L-65304.518 282.36z"/></clipPath><clipPath id="cY"><path fill="#5d7182" d="M67913.427 361.4L-64818.34 1316.145l-606.304-1032.92L67307.122-671.52z"/></clipPath><clipPath id="cX"><path fill="#5d7182" d="M-3000-627.452h7920v-380.673h-7920z"/></clipPath><clipPath id="cW"><path fill="#5d7182" d="M-3000 627.452h7920v380.673h-7920z"/></clipPath><clipPath id="cV"><path fill="#5d7182" d="M-3000 627.452h7920v380.673h-7920z"/></clipPath><clipPath id="cU"><path fill="#5d7182" d="M66868.452-1418.853L-65863.315-464.11l606.305 1032.92L67474.756-385.933z"/></clipPath><clipPath id="cT"><path fill="#5d7182" d="M-65743.19-464.974l132731.767-954.743 606.305 1032.92-132731.766 954.743z"/></clipPath><clipPath id="cS"><path fill="#5d7182" d="M-3000 627.452h7920v380.673h-7920z"/></clipPath><clipPath id="cR"><path fill="#5d7182" d="M-3585 564.666h7920V945.34h-7920z"/></clipPath><clipPath id="cQ"><path fill="#5d7182" d="M-3585 564.666h7920V945.34h-7920z"/></clipPath><clipPath id="cP"><path fill="#5d7182" d="M-3585 564.666h7920V945.34h-7920z"/></clipPath><clipPath id="cO"><path fill="#5d7182" d="M-3585 564.666h7920V945.34h-7920z"/></clipPath><clipPath id="cN"><path fill="#5d7182" d="M-3585 564.666h7920V945.34h-7920z"/></clipPath><clipPath id="cM"><path fill="#5d7182" d="M-3585 564.666h7920V945.34h-7920z"/></clipPath><clipPath id="cL"><path fill="#5d7182" d="M-3585 564.666h7920V945.34h-7920z"/></clipPath><clipPath id="cK"><path fill="#5d7182" d="M-3585 564.666h7920V945.34h-7920z"/></clipPath><clipPath id="cJ"><path fill="#5d7182" d="M-3585 564.666h7920V945.34h-7920z"/></clipPath><clipPath id="cI"><path fill="#5d7182" d="M-3585 564.666h7920V945.34h-7920z"/></clipPath><clipPath id="cH"><path fill="#5d7182" d="M-3585 564.666h7920V945.34h-7920z"/></clipPath><clipPath id="cG"><path fill="#5d7182" d="M-3585 564.666h7920V945.34h-7920z"/></clipPath><clipPath id="cF"><path fill="#5d7182" d="M-3585 564.666h7920V945.34h-7920z"/></clipPath><clipPath id="cE"><path fill="#5d7182" d="M-3585 564.666h7920V945.34h-7920z"/></clipPath><clipPath id="cD"><path fill="#5d7182" d="M-3585 564.666h7920V945.34h-7920z"/></clipPath><clipPath id="cC"><path fill="#5d7182" d="M-3585 564.666h7920V945.34h-7920z"/></clipPath><clipPath id="cB"><path fill="#5d7182" d="M-3585 564.666h7920V945.34h-7920z"/></clipPath><clipPath id="cA"><path fill="#5d7182" d="M-3585 564.666h7920V945.34h-7920z"/></clipPath><clipPath id="cz"><path fill="#5d7182" d="M-3585 564.666h7920V945.34h-7920z"/></clipPath><clipPath id="cy"><path fill="#5d7182" d="M-3585 564.666h7920V945.34h-7920z"/></clipPath><clipPath id="cx"><path fill="#5d7182" d="M-3585 564.666h7920V945.34h-7920z"/></clipPath><clipPath id="cw"><path fill="#5d7182" d="M-3585 564.666h7920V945.34h-7920z"/></clipPath><clipPath id="cv"><path fill="#5d7182" d="M-3585 564.666h7920V945.34h-7920z"/></clipPath><clipPath id="cu"><path fill="#5d7182" d="M-3585 564.666h7920V945.34h-7920z"/></clipPath><clipPath id="ct"><path fill="#5d7182" d="M-3585 564.666h7920V945.34h-7920z"/></clipPath><clipPath id="cs"><path fill="#5d7182" d="M-3585 564.666h7920V945.34h-7920z"/></clipPath><clipPath id="cr"><path fill="#5d7182" d="M-3585 564.666h7920V945.34h-7920z"/></clipPath><clipPath id="cq"><path fill="#5d7182" d="M-3585 564.666h7920V945.34h-7920z"/></clipPath><clipPath id="cp"><path fill="#5d7182" d="M-3585 564.666h7920V945.34h-7920z"/></clipPath><clipPath id="co"><path fill="#5d7182" d="M-3585 564.666h7920V945.34h-7920z"/></clipPath><clipPath id="cn"><path fill="#5d7182" d="M-3585 564.666h7920V945.34h-7920z"/></clipPath><clipPath id="cm"><path fill="#5d7182" d="M564.666 3585v-7920H945.34v7920z"/></clipPath><clipPath id="cl"><path fill="#5d7182" d="M564.666 3585v-7920H945.34v7920z"/></clipPath><clipPath id="ck"><path fill="#5d7182" d="M564.666 3585v-7920H945.34v7920z"/></clipPath><clipPath id="cj"><path fill="#5d7182" d="M564.666 3585v-7920H945.34v7920z"/></clipPath><clipPath id="ci"><path fill="#5d7182" d="M564.666 3585v-7920H945.34v7920z"/></clipPath><clipPath id="ch"><path fill="#5d7182" d="M-14164.828-844.487l33182.833-238.684 18.8 2613.812-33182.83 238.685z"/></clipPath><clipPath id="cg"><path fill="#5d7182" d="M564.666 3585v-7920H945.34v7920z"/></clipPath><clipPath id="cf"><path fill="#5d7182" d="M-3000 627.452h7920v380.673h-7920z"/></clipPath><clipPath id="ce"><path fill="#5d7182" d="M564.666 3585v-7920H945.34v7920z"/></clipPath><clipPath id="cd"><path fill="#5d7182" d="M-3000 627.452h7920v380.673h-7920z"/></clipPath><clipPath id="cc"><path fill="#5d7182" d="M564.666 3585v-7920H945.34v7920z"/></clipPath><clipPath id="cb"><path fill="#5d7182" d="M-14164.828-844.487l33182.833-238.684 18.8 2613.812-33182.83 238.685z"/></clipPath><clipPath id="ca"><path fill="#5d7182" d="M564.666 3585v-7920H945.34v7920z"/></clipPath><clipPath id="bZ"><path fill="#5d7182" d="M564.666 3585v-7920H945.34v7920z"/></clipPath><clipPath id="bY"><path fill="#5d7182" d="M564.666 3585v-7920H945.34v7920z"/></clipPath><clipPath id="bX"><path fill="#5d7182" d="M564.666 3585v-7920H945.34v7920z"/></clipPath><clipPath id="bW"><path fill="#5d7182" d="M564.666 3585v-7920H945.34v7920z"/></clipPath><clipPath id="bV"><path fill="#5d7182" d="M564.666 3585v-7920H945.34v7920z"/></clipPath><clipPath id="bU"><path fill="#5d7182" d="M564.666 3585v-7920H945.34v7920z"/></clipPath><clipPath id="bT"><path fill="#5d7182" d="M564.666 3585v-7920H945.34v7920z"/></clipPath><clipPath id="bS"><path fill="#5d7182" d="M-3000 627.452h7920v380.673h-7920z"/></clipPath><clipPath id="bR"><path fill="#5d7182" d="M-14270.04-307.72l36869.93-265.21 763.944 1301.48-36869.93 265.208z"/></clipPath><clipPath id="bQ"><path fill="#5d7182" d="M-3585 564.666h7920V945.34h-7920z"/></clipPath><clipPath id="bP"><path fill="#5d7182" d="M-3000 668.794h7920v324.393h-7920z"/></clipPath><clipPath id="bO"><path fill="#5d7182" d="M-3000 627.452h7920v380.673h-7920z"/></clipPath><clipPath id="bN"><path fill="#5d7182" d="M-3000 627.452h7920v380.673h-7920z"/></clipPath><clipPath id="bM"><path fill="#5d7182" d="M-3000 627.452h7920v380.673h-7920z"/></clipPath><clipPath id="bL"><path fill="#5d7182" d="M-36505.876-1759.236l75109.37-540.263 1556.262 2651.303-75109.37 540.263z"/></clipPath><clipPath id="bK"><path fill="#5d7182" d="M-3000 627.452h7920v380.673h-7920z"/></clipPath><clipPath id="bJ"><path fill="#5d7182" d="M-36505.876-1759.236l75109.37-540.263 1556.262 2651.303-75109.37 540.263z"/></clipPath><clipPath id="bI"><path fill="#5d7182" d="M-3000 627.452h7920v380.673h-7920z"/></clipPath><clipPath id="bH"><path fill="#5d7182" d="M-38127.53-2293.01l79006.9-568.277 26.607 3698.88-79006.9 568.276z"/></clipPath><clipPath id="bG"><path fill="#5d7182" d="M-3000 627.452h7920v380.673h-7920z"/></clipPath><clipPath id="bF"><path fill="#5d7182" d="M-38127.53-2293.01l79006.9-568.277 26.607 3698.88-79006.9 568.276z"/></clipPath><clipPath id="bE"><path fill="#5d7182" d="M-3000 627.452h7920v380.673h-7920z"/></clipPath><clipPath id="bD"><path fill="#5d7182" d="M-39548.55-4030.1l79384.688-571.015 44.98 6253.137-79384.69 571.015z"/></clipPath><clipPath id="bC"><path fill="#5d7182" d="M-3000 627.452h7920v380.673h-7920z"/></clipPath><clipPath id="bB"><path fill="#5d7182" d="M-39548.55-4030.1l79384.688-571.015 44.98 6253.137-79384.69 571.015z"/></clipPath><clipPath id="bA"><path fill="#5d7182" d="M-3000 627.452h7920v380.673h-7920z"/></clipPath><clipPath id="bz"><path fill="#5d7182" d="M-25920.975 76650.772l43924.3-139127.355 3711.517 3803.825-43924.3 139127.355z"/></clipPath><clipPath id="by"><path fill="#5d7182" d="M13367.834 41816.07l-24151.012-72676.408L-7290-32021.152l24151.013 72676.41z"/></clipPath><clipPath id="bx"><path fill="#5d7182" d="M-3585 564.666h7920V945.34h-7920z"/></clipPath><clipPath id="bw"><path fill="#5d7182" d="M-38822.86 50081.78l68591.335-96962.992 2586.694 5939.98-68591.337 96962.99z"/></clipPath><clipPath id="bv"><path fill="#5d7182" d="M-3521.684 41579.565l5069.7-74987.29 3604.252 243.675-5069.7 74987.29z"/></clipPath><clipPath id="bu"><path fill="#5d7182" d="M-3585 564.666h7920V945.34h-7920z"/></clipPath><clipPath id="bt"><path fill="#5d7182" d="M-32749.03-52951.047L32133.06 32621.37l-2282.825 5618.76-64882.09-85572.417z"/></clipPath><clipPath id="bs"><path fill="#5d7182" d="M-36662.973 4710l67849.91-14186.687 681.882 3261.193-67849.912 14186.69z"/></clipPath><clipPath id="br"><path fill="#5d7182" d="M-3585 564.666h7920V945.34h-7920z"/></clipPath><clipPath id="bq"><path fill="#5d7182" d="M-61900.23-10151.206l109259.104-785.872 70.408 9788.466L-61829.82-362.74z"/></clipPath><clipPath id="bp"><path fill="#5d7182" d="M-3000 627.452h7920v380.673h-7920z"/></clipPath><clipPath id="bo"><path fill="#5d7182" d="M3000 627.452h-7920v380.673h7920z"/></clipPath><clipPath id="bn"><path fill="#5d7182" d="M3000 627.452h-7920v380.673h7920z"/></clipPath><clipPath id="bm"><path fill="#5d7182" d="M3000 627.452h-7920v380.673h7920z"/></clipPath><clipPath id="bl"><path fill="#5d7182" d="M32154.27-2500.13l-62846.472 452.056 1677.718 2858.215 62846.472-452.054z"/></clipPath><clipPath id="bk"><path fill="#5d7182" d="M3000 627.452h-7920v380.673h7920z"/></clipPath><clipPath id="bj"><path fill="#5d7182" d="M3000 627.452h-7920v380.673h7920z"/></clipPath><clipPath id="bi"><path fill="#5d7182" d="M24054.394-1678.072l-62846.472 452.055 1302.177 2218.43 62846.47-452.055z"/></clipPath><clipPath id="bh"><path fill="#5d7182" d="M3000 627.452h-7920v380.673h7920z"/></clipPath><clipPath id="bg"><path fill="#5d7182" d="M3000 627.452h-7920v380.673h7920z"/></clipPath><clipPath id="bf"><path fill="#5d7182" d="M3000 627.452h-7920v380.673h7920z"/></clipPath><clipPath id="be"><path fill="#5d7182" d="M3000 627.452h-7920v380.673h7920z"/></clipPath><clipPath id="bd"><path fill="#5d7182" d="M-38127.53-2293.01l79006.9-568.277 26.607 3698.88-79006.9 568.276z"/></clipPath><clipPath id="bc"><path fill="#5d7182" d="M-3000 627.452h7920v380.673h-7920z"/></clipPath><clipPath id="bb"><path fill="#5d7182" d="M-3000 627.452h7920v380.673h-7920z"/></clipPath><clipPath id="ba"><path fill="#5d7182" d="M-36505.876-1759.236l75109.37-540.263 1556.262 2651.303-75109.37 540.263z"/></clipPath><clipPath id="aZ"><path fill="#5d7182" d="M-3000 627.452h7920v380.673h-7920z"/></clipPath><clipPath id="aY"><path fill="#5d7182" d="M-9684.026-68.38h23645.348v1223.8H-9684.026z"/></clipPath><clipPath id="aX"><path fill="#5d7182" d="M-3000 627.452h7920v380.673h-7920z"/></clipPath><clipPath id="aW"><path fill="#5d7182" d="M-7178.644-99.013H11065.49v1223.8H-7178.643z"/></clipPath><clipPath id="aV"><path fill="#5d7182" d="M-9684.026-128.213h23645.348v1223.8H-9684.026z"/></clipPath><clipPath id="aU"><path fill="#5d7182" d="M-3000 627.452h7920v380.673h-7920z"/></clipPath><clipPath id="aT"><path fill="#5d7182" d="M-3000 627.452h7920v380.673h-7920z"/></clipPath><clipPath id="aS"><path fill="#5d7182" d="M-3000 627.452h7920v380.673h-7920z"/></clipPath><clipPath id="aR"><path fill="#5d7182" d="M-3000 633.852h7920v373.378h-7920z"/></clipPath><clipPath id="aQ"><path fill="#5d7182" d="M-3000 627.452h7920v380.673h-7920z"/></clipPath><clipPath id="aP"><path fill="#5d7182" d="M58220.186-1677.26L-74511.58-722.516l763.943 1301.48L58984.13-375.78z"/></clipPath><clipPath id="aO"><path fill="#5d7182" d="M39046.66-2392.26l-90805.854 653.17 1881.494 3205.375 90805.853-653.17z"/></clipPath><clipPath id="aN"><path fill="#5d7182" d="M381.477 5675.15V-6704.526h644.33V5675.15z"/></clipPath><clipPath id="aM"><path fill="#5d7182" d="M-3000 627.452h7920v380.673h-7920z"/></clipPath><clipPath id="aL"><path fill="#5d7182" d="M-5079.645 210.19H9022.207v769.586H-5079.645z"/></clipPath><clipPath id="aK"><path fill="#5d7182" d="M-3000 627.452h7920v380.673h-7920z"/></clipPath><clipPath id="aJ"><path fill="#5d7182" d="M-3000 627.452h7920v380.673h-7920z"/></clipPath><clipPath id="aI"><path fill="#5d7182" d="M24054.394-1678.072l-62846.472 452.055 1302.177 2218.43 62846.47-452.055z"/></clipPath><clipPath id="aH"><path fill="#5d7182" d="M3000 627.452h-7920v380.673h7920z"/></clipPath><clipPath id="aG"><path fill="#5d7182" d="M-3000 627.452h7920v380.673h-7920z"/></clipPath><clipPath id="aF"><path fill="#5d7182" d="M-3000 627.452h7920v380.673h-7920z"/></clipPath><clipPath id="aE"><path fill="#5d7182" d="M-3000 626.98h7920v380.674h-7920z"/></clipPath><clipPath id="aD"><path fill="#5d7182" d="M-3000 627.452h7920v380.673h-7920z"/></clipPath><clipPath id="aC"><path fill="#5d7182" d="M-8721.06-1576.647H9685.598v791.25H-8721.06z"/></clipPath><clipPath id="aB"><path fill="#5d7182" d="M-39548.55-4030.1l79384.688-571.015 44.98 6253.137-79384.69 571.015z"/></clipPath><clipPath id="aA"><path fill="#5d7182" d="M58220.186-1677.26L-74511.58-722.516l763.943 1301.48L58984.13-375.78z"/></clipPath><clipPath id="az"><path fill="#5d7182" d="M-3000 627.452h7920v380.673h-7920z"/></clipPath><clipPath id="ay"><path fill="#5d7182" d="M-30612.538-1190.68l58310.405-419.43 1208.19 2058.312-58310.406 419.43z"/></clipPath><clipPath id="ax"><path fill="#5d7182" d="M43059.373-2420.755l-90805.854 653.172 1881.493 3205.375L44940.867 784.62z"/></clipPath><clipPath id="aw"><path fill="#5d7182" d="M-57469.724-845.1l132731.766-954.74 763.943 1301.478L-56705.78 456.38z"/></clipPath><clipPath id="av"><path fill="#5d7182" d="M39046.66-2392.26l-90805.854 653.17 1881.494 3205.375 90805.853-653.17z"/></clipPath><clipPath id="au"><path fill="#5d7182" d="M-24529.91-987.194l57034.767-410.253 1181.758 2013.282-57034.766 410.254z"/></clipPath><clipPath id="at"><path fill="#5d7182" d="M-3000 627.452h7920v380.673h-7920z"/></clipPath><clipPath id="as"><path fill="#5d7182" d="M-14488.16-679.322L22381.767-944.53l763.944 1301.48-36869.93 265.208z"/></clipPath><clipPath id="ar"><path fill="#5d7182" d="M-3000 627.452h7920v380.673h-7920z"/></clipPath><clipPath id="aq"><path fill="#5d7182" d="M-3000 627.452h7920v380.673h-7920z"/></clipPath><clipPath id="ap"><path fill="#5d7182" d="M-3000 627.452h7920v380.673h-7920z"/></clipPath><clipPath id="ao"><path fill="#5d7182" d="M-3000 627.452h7920v380.673h-7920z"/></clipPath><clipPath id="an"><path fill="#5d7182" d="M-3000 627.452h7920v380.673h-7920z"/></clipPath><clipPath id="am"><path fill="#5d7182" d="M-3000 627.452h7920v380.673h-7920z"/></clipPath><clipPath id="al"><path fill="#5d7182" d="M-3000 627.452h7920v380.673h-7920z"/></clipPath><clipPath id="ak"><path fill="#5d7182" d="M-3000 627.452h7920v380.673h-7920z"/></clipPath><clipPath id="aj"><path fill="#5d7182" d="M-18961.655-1870.677l42651.432-306.792 24.166 3359.657-42651.432 306.792z"/></clipPath><clipPath id="ai"><path fill="#5d7182" d="M-18961.655-1870.677l42651.432-306.792 24.166 3359.657-42651.432 306.792z"/></clipPath><clipPath id="ah"><path fill="#5d7182" d="M-57469.724-845.1l132731.766-954.74 763.943 1301.478L-56705.78 456.38z"/></clipPath><clipPath id="ag"><path fill="#5d7182" d="M-3000 627.452h7920v380.673h-7920z"/></clipPath><clipPath id="af"><path fill="#5d7182" d="M-3000 627.452h7920v380.673h-7920z"/></clipPath><clipPath id="ae"><path fill="#5d7182" d="M-3000 627.452h7920v380.673h-7920z"/></clipPath><clipPath id="ad"><path fill="#5d7182" d="M-3000 627.452h7920v380.673h-7920z"/></clipPath><clipPath id="ac"><path fill="#5d7182" d="M-3000 627.452h7920v380.673h-7920z"/></clipPath><clipPath id="ab"><path fill="#5d7182" d="M-3000 627.452h7920v380.673h-7920z"/></clipPath><clipPath id="aa"><path fill="#5d7182" d="M-3000 627.452h7920v380.673h-7920z"/></clipPath><clipPath id="Z"><path fill="#5d7182" d="M-14270.04-307.72l36869.93-265.21 763.944 1301.48-36869.93 265.208z"/></clipPath><clipPath id="Y"><path fill="#5d7182" d="M-3000 627.452h7920v380.673h-7920z"/></clipPath><clipPath id="X"><path fill="#5d7182" d="M-3000 627.452h7920v380.673h-7920z"/></clipPath><clipPath id="W"><path fill="#5d7182" d="M-3000 627.452h7920v380.673h-7920z"/></clipPath><clipPath id="V"><path fill="#5d7182" d="M-3000 627.452h7920v380.673h-7920z"/></clipPath><clipPath id="U"><path fill="#5d7182" d="M78.594-9182.65V8788.266h935.34V-9182.65z"/></clipPath><clipPath id="T"><path fill="#5d7182" d="M-5468.33-1417.685H6486.443v657.536H-5468.33z"/></clipPath><clipPath id="R"><path fill="#5d7182" d="M-62509.408-15471.56L48629.157-2521.786l-345.462 9624.55L-62854.87-5847.01z"/></clipPath><clipPath id="Q"><path fill="#5d7182" d="M-40495.34 35776.086l68696.385-67071.474 3223.778 3301.88-68696.386 67071.473z"/></clipPath><clipPath id="P"><path fill="#5d7182" d="M-3585 564.666h7920V945.34h-7920z"/></clipPath><clipPath id="O"><path fill="#5d7182" d="M-14164.828-844.487l33182.833-238.684 18.8 2613.812-33182.83 238.685z"/></clipPath><clipPath id="N"><path fill="#5d7182" d="M-14270.04-307.72l36869.93-265.21 763.944 1301.48-36869.93 265.208z"/></clipPath><clipPath id="M"><path fill="#5d7182" d="M-3000 627.452h7920v380.673h-7920z"/></clipPath><clipPath id="L"><path fill="#5d7182" d="M-3000 627.452h7920v380.673h-7920z"/></clipPath><clipPath id="K"><path fill="#5d7182" d="M58220.186-1677.26L-74511.58-722.516l763.943 1301.48L58984.13-375.78z"/></clipPath><clipPath id="J"><path fill="#5d7182" d="M-57469.724-845.1l132731.766-954.74 763.943 1301.478L-56705.78 456.38z"/></clipPath><clipPath id="I"><path fill="#5d7182" d="M-3000 627.452h7920v380.673h-7920z"/></clipPath><clipPath id="H"><path fill="#5d7182" d="M-3000 627.452h7920v380.673h-7920z"/></clipPath><clipPath id="G"><path fill="#5d7182" d="M-18961.655-1870.677l42651.432-306.792 24.166 3359.657-42651.432 306.792z"/></clipPath><clipPath id="F"><path fill="#5d7182" d="M-3000 627.452h7920v380.673h-7920z"/></clipPath><clipPath id="E"><path fill="#5d7182" d="M-18961.655-1870.677l42651.432-306.792 24.166 3359.657-42651.432 306.792z"/></clipPath><clipPath id="D"><path fill="#5d7182" d="M-3000 627.452h7920v380.673h-7920z"/></clipPath><clipPath id="C"><path fill="#5d7182" d="M943.91 686.53h-7920v380.674h7920z"/></clipPath><clipPath id="B"><path fill="#5d7182" d="M641.91 726.53h-7920v380.674h7920z"/></clipPath><clipPath id="A"><path fill="#5d7182" d="M903.91 644.53h-7920v380.674h7920z"/></clipPath><clipPath id="z"><path fill="#5d7182" d="M1169.908 664.53h-7920v380.674h7920z"/></clipPath><clipPath id="y"><path fill="#5d7182" d="M5536.982-1172.03l-57034.767 410.255 1181.758 2013.282L6718.74 841.254z"/></clipPath><clipPath id="x"><path fill="#5d7182" d="M-201.17 660.245h7920v380.673h-7920z"/></clipPath><clipPath id="w"><path fill="#5d7182" d="M-4231.748-1472.85l42651.43-306.793 24.167 3359.656-42651.432 306.792z"/></clipPath><clipPath id="v"><path fill="#5d7182" d="M-265.457 684.53h7920v380.674h-7920z"/></clipPath><clipPath id="u"><path fill="#5d7182" d="M2261.908 644.53h-7920v380.674h7920z"/></clipPath><clipPath id="t"><path fill="#5d7182" d="M2583.908 664.53h-7920v380.674h7920z"/></clipPath><clipPath id="s"><path fill="#5d7182" d="M3094.194 684.53h-7920v380.674h7920z"/></clipPath><clipPath id="r"><path fill="#5d7182" d="M14314.336-1725.568l-75109.37 540.263 1556.264 2651.302L15870.6 925.734z"/></clipPath><clipPath id="q"><path fill="#5d7182" d="M13860.92-1602.992L-28790.512-1296.2l24.166 3359.657 42651.432-306.792z"/></clipPath><clipPath id="p"><path fill="#5d7182" d="M1954.194 684.53h-7920v380.674h7920z"/></clipPath><clipPath id="o"><path fill="#5d7182" d="M7721.698-1558.832l-42651.43 306.792 24.165 3359.656 42651.43-306.792z"/></clipPath><clipPath id="n"><path fill="#5d7182" d="M1954.194 684.53h-7920v380.674h7920z"/></clipPath><clipPath id="m"><path fill="#5d7182" d="M-2189.743 664.53h7920v380.674h-7920z"/></clipPath><clipPath id="l"><path fill="#5d7182" d="M-2065.457 684.53h7920v380.674h-7920z"/></clipPath><clipPath id="k"><path fill="#5d7182" d="M2018.48 660.245h-7920v380.673h7920z"/></clipPath><clipPath id="j"><path fill="#5d7182" d="M-389.743 664.53h7920v380.674h-7920z"/></clipPath><clipPath id="i"><path fill="#5d7182" d="M641.91 664.53h-7920v380.674h7920z"/></clipPath><clipPath id="h"><path fill="#5d7182" d="M-277.683-244.612h7117.297V413.85H-277.683z"/></clipPath><clipPath id="g"><path fill="#5d7182" d="M-1255.927-333.57H5861.37v658.463h-7117.297z"/></clipPath><radialGradient xlink:href="#e" id="f" cx="3689.109" cy="-216.523" fx="3689.109" fy="-216.523" r="71.816" gradientTransform="matrix(1 0 0 .98462 0 -3.33)" gradientUnits="userSpaceOnUse"/></defs><g transform="translate(3513.125 -538.655)"><path transform="matrix(2.96332 0 0 2.5953 -10488.723 1315.383)" d="M3760.924-216.523a71.816 70.71 0 1 1-143.63 0 71.816 70.71 0 1 1 143.63 0z" fill="url(#f)"/><path d="M523.29 753.44a80 80 0 1 1-160 0 80 80 0 1 1 160 0z" fill="#ffb402"/><path transform="matrix(1.11278 0 0 .57813 -2115.552 717.667)" d="M5442.857 278.715c0 50.495-85.066 91.43-190 91.43s-190-40.935-190-91.43c0-50.494 85.066-91.428 190-91.428s190 40.934 190 91.428z" clip-path="url(#g)" fill="#3771c8"/><path d="M5442.857 278.715c0 50.495-85.066 91.43-190 91.43s-190-40.935-190-91.43c0-50.494 85.066-91.428 190-91.428s190 40.934 190 91.428z" transform="matrix(1.11278 0 0 .57813 -3204.124 666.238)" clip-path="url(#h)" fill="#3771c8"/><path transform="matrix(-1 0 0 1 -2871.216 -139.71)" clip-path="url(#i)" fill="#3771c8" d="M536.266 888.31h76.29v73.118h-76.29z"/><path transform="translate(-3123.382 -139.71)" clip-path="url(#j)" fill="#3771c8" d="M536.266 888.31h76.29v73.118h-76.29z"/><path transform="matrix(-1 0 0 1 -1494.645 -135.423)" clip-path="url(#k)" fill="#3771c8" d="M834.69 896.214h69.558V955.5H834.69z"/><path transform="translate(-1447.668 -159.71)" clip-path="url(#l)" fill="#3771c8" d="M834.69 896.214h69.558V955.5H834.69z"/><path clip-path="url(#m)" transform="translate(-1323.382 -139.71)" fill="#3771c8" d="M536.266 888.31h76.29v73.118h-76.29z"/><path clip-path="url(#n)" transform="matrix(-1 0 0 1 -1558.93 -159.71)" fill="#3771c8" d="M536.266 888.31h76.29v73.118h-76.29z"/><path transform="matrix(-.18568 .0008 .00134 .1133 -2077.265 695.147)" d="M500 291.667l-195.853 1.41-195.853 1.408L205 124.167l96.706-170.32 99.147 168.91z" clip-path="url(#o)" fill="#3771c8"/><path clip-path="url(#p)" transform="matrix(-1 0 0 1 -1558.93 -159.71)" fill="#2c5aa0" d="M539.445 907.083h39.266v24.702h-39.265z"/><path clip-path="url(#q)" d="M500 291.667l-195.853 1.41-195.853 1.408L205 124.167l96.706-170.32 99.147 168.91z" transform="matrix(-.18568 .0008 .00134 .1133 -937.265 695.147)" fill="#3771c8"/><path transform="matrix(-.105 .00103 .06163 .14298 -1903.723 756.816)" d="M500 291.667l-195.853 1.41-195.853 1.408L205 124.167l96.706-170.32 99.147 168.91z" clip-path="url(#r)" fill="#3771c8"/><path transform="matrix(-1 0 0 1 -418.93 -159.71)" clip-path="url(#s)" fill="#3771c8" d="M539.445 907.083h39.266v24.702h-39.265z"/><path clip-path="url(#t)" transform="matrix(-1 0 0 1 -929.216 -139.71)" fill="#3771c8" d="M536.266 888.31h76.29v73.118h-76.29z"/><path transform="matrix(-1 0 0 1 -1251.216 -119.71)" clip-path="url(#u)" fill="#3771c8" d="M536.266 888.31h76.29v73.118h-76.29z"/><path clip-path="url(#v)" transform="translate(-3247.668 -159.71)" fill="#3771c8" d="M834.69 896.214h69.558V955.5H834.69z"/><path transform="matrix(.18568 .0008 -.00134 .1133 -2729.334 695.147)" d="M500 291.667l-195.853 1.41-195.853 1.408L205 124.167l96.706-170.32 99.147 168.91z" clip-path="url(#w)" fill="#3771c8"/><path transform="translate(-3311.954 -135.423)" clip-path="url(#x)" fill="#3771c8" d="M834.69 896.214h69.558V955.5H834.69z"/><path clip-path="url(#y)" transform="matrix(-.13828 .00135 .08117 .1883 -2652.347 738)" d="M500 291.667l-195.853 1.41-195.853 1.408L205 124.167l96.706-170.32 99.147 168.91z" fill="#3771c8"/><path transform="matrix(-1 0 0 1 -2343.216 -139.71)" clip-path="url(#z)" fill="#3771c8" d="M536.266 888.31h76.29v73.118h-76.29z"/><path clip-path="url(#A)" transform="matrix(-1 0 0 1 -2609.216 -119.71)" fill="#3771c8" d="M536.266 888.31h76.29v73.118h-76.29z"/><path clip-path="url(#B)" transform="matrix(-1 0 0 1 -2871.216 -201.71)" fill="#3771c8" d="M536.266 888.31h76.29v73.118h-76.29z"/><path transform="matrix(-1 0 0 1 -2569.216 -161.71)" clip-path="url(#C)" fill="#3771c8" d="M536.266 888.31h76.29v73.118h-76.29z"/><path clip-path="url(#D)" transform="translate(-513.125 -102.63)" fill="#3771c8" d="M536.266 888.31h76.29v73.118h-76.29z"/><path transform="matrix(.18568 .0008 -.00134 .1133 5.21 752.225)" d="M500 291.667l-195.853 1.41-195.853 1.408L205 124.167l96.706-170.32 99.147 168.91z" clip-path="url(#E)" fill="#3771c8"/><path transform="translate(-513.125 -102.63)" clip-path="url(#F)" fill="#3771c8" d="M536.266 888.31h76.29v73.118h-76.29z"/><path clip-path="url(#G)" d="M500 291.667l-195.853 1.41-195.853 1.408L205 124.167l96.706-170.32 99.147 168.91z" transform="matrix(.18568 .0008 -.00134 .1133 5.21 752.225)" fill="#3771c8"/><rect rx="1.402" ry="8.36" y="718.018" x="449.887" height="49.405" width="2.805" clip-path="url(#H)" transform="translate(-513.125 -102.63)" fill="#2c5aa0"/><path clip-path="url(#I)" transform="translate(-513.125 -102.63)" fill="#2c5aa0" d="M404.817 981.19h93.49V1080h-93.49z"/><path d="M500 291.667l-195.853 1.41-195.853 1.408L205 124.167l96.706-170.32 99.147 168.91z" transform="matrix(.05942 .0021 -.03488 .29126 -127.844 891.37)" clip-path="url(#J)" fill="#2c5aa0"/><path transform="matrix(-.05942 .0021 .03488 .29126 4.72 891.37)" d="M500 291.667l-195.853 1.41-195.853 1.408L205 124.167l96.706-170.32 99.147 168.91z" clip-path="url(#K)" fill="#2c5aa0"/><path clip-path="url(#L)" transform="translate(-513.125 -102.63)" fill="#2c5aa0" d="M404.543 808.273h93.49V981.19h-93.49z"/><path transform="translate(-513.125 -102.63)" clip-path="url(#M)" fill="#2c5aa0" d="M0 832.976h84.142V1080H0z"/><path d="M500 291.667l-195.853 1.41-195.853 1.408L205 124.167l96.706-170.32 99.147 168.91z" transform="matrix(.2139 .0021 -.12556 .29126 -499.315 644.346)" clip-path="url(#N)" fill="#2c5aa0"/><path d="M500 291.667l-195.853 1.41-195.853 1.408L205 124.167l96.706-170.32 99.147 168.91z" transform="matrix(.23867 .00105 -.00172 .14563 -133.922 662.644)" clip-path="url(#O)" fill="#2c5aa0"/><path clip-path="url(#P)" transform="translate(71.875 -39.844)" fill="#3771c8" d="M1019.073 850.024h2.805V898.2h-2.805z"/><path d="M1882.4-740.24c-77.96 86.62 20.534 316.29-93.462 292.086-113.995-24.204 69.322-194.038 33.285-304.863C1786.187-863.842 1538.04-893.38 1616-980c77.96-86.62 133.382 157.053 247.377 181.257 113.995 24.204 263.648-175.928 299.685-65.103C2199.098-753.02 1960.36-826.86 1882.4-740.24z" transform="rotate(44.313 -447.627 1526.098) scale(.0825)" clip-path="url(#Q)" fill="#3771c8"/><path d="M1918-764.5c0 57.714-25.968 104.5-58 104.5s-58-46.786-58-104.5 25.968-104.5 58-104.5 58 46.786 58 104.5z" transform="matrix(.07097 -.0046 .00255 .0394 962.302 847.328)" clip-path="url(#R)" fill="#3771c8"/><path d="M5442.857 278.715c0 50.495-85.066 91.43-190 91.43s-190-40.935-190-91.43c0-50.494 85.066-91.428 190-91.428s190 40.934 190 91.428z" transform="matrix(1.33835 0 0 .82813 -5346.122 610.845)" clip-path="url(#S)" fill="#3771c8"/><path transform="matrix(.6625 0 0 .57894 109.627 1345.575)" d="M1380-636c0-167.895 208.635-304 466-304s466 136.105 466 304h-466z" clip-path="url(#T)" fill="#2c5aa0"/><path transform="matrix(0 .407 .4407 0 533.78 492.835)" d="M743.876 585.025c0-96.85 86.11-175.362 192.333-175.362 106.222 0 192.332 78.512 192.332 175.362" clip-path="url(#U)" fill="#3771c8"/><path transform="translate(-513.125 -102.63)" clip-path="url(#V)" fill="#2c5aa0" d="M0 939.56h1316.52V1080H0z"/><path transform="translate(-513.125 -102.63)" clip-path="url(#W)" fill="#2c5aa0" d="M0 832.976h84.142V1080H0z"/><rect transform="translate(-513.125 -102.63)" clip-path="url(#X)" width="2.805" height="49.405" x="449.887" y="718.018" ry="8.36" rx="1.402" fill="#2c5aa0"/><path transform="translate(-513.125 -102.63)" clip-path="url(#Y)" fill="#3771c8" d="M42.632 842.857h157.065v164.024H42.632z"/><path clip-path="url(#Z)" transform="matrix(.2139 .0021 -.12556 .29126 -499.315 644.346)" d="M500 291.667l-195.853 1.41-195.853 1.408L205 124.167l96.706-170.32 99.147 168.91z" fill="#2c5aa0"/><path transform="translate(-513.125 -102.63)" clip-path="url(#aa)" fill="#3771c8" d="M172.772 919.928h127.896v71.143H172.772z"/><path transform="translate(-513.125 -102.63)" clip-path="url(#ab)" fill="#3771c8" d="M251.305 882.38h105.458v136.358H251.305z"/><path transform="translate(-513.125 -102.63)" clip-path="url(#ac)" fill="#3771c8" d="M347.788 912.024h96.483v67.19H347.79z"/><path transform="translate(-513.125 -102.63)" clip-path="url(#ad)" fill="#2c5aa0" d="M404.817 981.19h93.49V1080h-93.49z"/><path transform="translate(-513.125 -102.63)" clip-path="url(#ae)" fill="#2c5aa0" d="M408.37 856.69h40.388v173.905H408.37z"/><path clip-path="url(#af)" transform="translate(-513.125 -102.63)" fill="#2c5aa0" d="M404.817 981.19h93.49V1080h-93.49z"/><path transform="translate(-513.125 -102.63)" clip-path="url(#ag)" fill="#2c5aa0" d="M484.66 912.024h65.07v51.38h-65.07z"/><path clip-path="url(#ah)" transform="matrix(.05942 .0021 -.03488 .29126 -127.844 891.37)" d="M500 291.667l-195.853 1.41-195.853 1.408L205 124.167l96.706-170.32 99.147 168.91z" fill="#2c5aa0"/><path transform="matrix(.18568 .0008 -.00134 .1133 5.21 752.225)" d="M500 291.667l-195.853 1.41-195.853 1.408L205 124.167l96.706-170.32 99.147 168.91z" clip-path="url(#ai)" fill="#3771c8"/><path clip-path="url(#aj)" d="M500 291.667l-195.853 1.41-195.853 1.408L205 124.167l96.706-170.32 99.147 168.91z" transform="matrix(.18568 .0008 -.00134 .1133 5.21 752.225)" fill="#3771c8"/><path transform="translate(-513.125 -102.63)" clip-path="url(#ak)" fill="#2c5aa0" d="M536.266 888.31h76.29v73.118h-76.29z"/><path transform="translate(-513.125 -102.63)" clip-path="url(#al)" fill="#3771c8" d="M596.85 919.928h40.387v75.095H596.85z"/><path transform="translate(-513.125 -102.63)" clip-path="url(#am)" fill="#2c5aa0" d="M762.89 872.5h62.825v112.643H762.89z"/><path transform="translate(-513.125 -102.63)" clip-path="url(#an)" fill="#3771c8" d="M650.7 912.024h78.533v71.143H650.7z"/><path transform="translate(-513.125 -102.63)" clip-path="url(#ao)" fill="#3771c8" d="M834.69 896.214h69.558V955.5H834.69z"/><path transform="translate(-513.125 -102.63)" clip-path="url(#ap)" fill="#3771c8" d="M985.025 927.833h105.458v59.286H985.025z"/><path transform="translate(-513.125 -102.63)" clip-path="url(#aq)" fill="#3771c8" d="M1130.87 925.857h76.29v49.405h-76.29z"/><path transform="translate(-513.125 -102.63)" clip-path="url(#ar)" fill="#2c5aa0" d="M951.368 908.07H994v51.382h-42.632z"/><path transform="matrix(.2139 .0021 -.12556 .29126 -499.315 753.037)" d="M500 291.667l-195.853 1.41-195.853 1.408L205 124.167l96.706-170.32 99.147 168.91z" clip-path="url(#as)" fill="#2c5aa0"/><path transform="translate(-513.125 -102.63)" clip-path="url(#at)" fill="#2c5aa0" d="M0 832.976h84.142V1080H0z"/><path d="M500 291.667l-195.853 1.41-195.853 1.408L205 124.167l96.706-170.32 99.147 168.91z" transform="matrix(.13828 .00135 -.08117 .1883 -201.285 743.92)" clip-path="url(#au)" fill="#3771c8"/><path transform="matrix(-.08685 .00085 .05098 .11826 .128 774.52)" d="M500 291.667l-195.853 1.41-195.853 1.408L205 124.167l96.706-170.32 99.147 168.91z" clip-path="url(#av)" fill="#2c5aa0"/><path d="M500 291.667l-195.853 1.41-195.853 1.408L205 124.167l96.706-170.32 99.147 168.91z" transform="matrix(.05942 .0021 -.03488 .29126 -127.844 891.37)" clip-path="url(#aw)" fill="#2c5aa0"/><path d="M500 291.667l-195.853 1.41-195.853 1.408L205 124.167l96.706-170.32 99.147 168.91z" transform="matrix(-.08685 .00085 .05098 .11826 350.094 774.475)" clip-path="url(#ax)" fill="#3771c8"/><path transform="matrix(.13525 .00132 -.0794 .18417 532.806 784.66)" d="M500 291.667l-195.853 1.41-195.853 1.408L205 124.167l96.706-170.32 99.147 168.91z" clip-path="url(#ay)" fill="#3771c8"/><path transform="translate(-513.125 -102.63)" clip-path="url(#az)" fill="#3771c8" d="M484.66 912.024h65.07v51.38h-65.07z"/><path clip-path="url(#aA)" d="M500 291.667l-195.853 1.41-195.853 1.408L205 124.167l96.706-170.32 99.147 168.91z" transform="matrix(-.05942 .0021 .03488 .29126 4.72 891.37)" fill="#2c5aa0"/><path d="M500 291.667l-195.853 1.41-195.853 1.408L205 124.167l96.706-170.32 99.147 168.91z" transform="matrix(.09976 .00044 -.00072 .06087 429.433 787.467)" clip-path="url(#aB)" fill="#2c5aa0"/><path d="M1380-636c0-167.895 208.635-304 466-304s466 136.105 466 304h-466z" transform="matrix(.43028 0 0 .4811 239.365 1283.35)" clip-path="url(#aC)" fill="#2c5aa0"/><rect transform="translate(-513.125 -102.63)" ry="0" rx="0" y="1006.881" x="1276.717" height="73.119" width="130.14" clip-path="url(#aD)" fill="#2c5aa0"/><path clip-path="url(#aE)" transform="translate(-513.125 -102.16)" fill="#2c5aa0" d="M1396.208 1052.978h114.235v26.55h-114.235z"/><path transform="translate(-513.125 -102.63)" clip-path="url(#aF)" fill="#2c5aa0" d="M1251.828 988.12h99.956v54.498h-99.956z"/><path transform="translate(-513.125 -102.63)" clip-path="url(#aG)" fill="#2c5aa0" d="M1380.342 1041.22h44.425v19.564h-44.425z"/><path transform="matrix(-1 0 0 1 -513.125 -102.63)" clip-path="url(#aH)" fill="#2c5aa0" d="M-150.334 935.08h49.363V1080h-49.364z"/><path transform="matrix(-.1255 .00123 .07366 .17087 -370.893 781.996)" d="M500 291.667l-195.853 1.41-195.853 1.408L205 124.167l96.706-170.32 99.147 168.91z" clip-path="url(#aI)" fill="#2c5aa0"/><path transform="translate(-513.125 -102.63)" clip-path="url(#aJ)" fill="#2c5aa0" d="M169.51 734.166h61.705V1080H169.51z"/><rect transform="translate(-513.125 -102.63)" width="2.805" height="49.405" x="198.96" y="641.285" ry="8.36" rx="1.402" clip-path="url(#aK)" fill="#2c5aa0"/><path d="M698.622 399.056c0 44.13-35.774 79.903-79.904 79.903-44.13 0-79.903-35.775-79.903-79.904 0-44.13 35.774-79.903 79.903-79.903 44.13 0 79.904 35.774 79.904 79.903z" transform="matrix(.56163 0 0 .49465 -660.252 420.85)" clip-path="url(#aL)" fill="#2c5aa0"/><rect transform="translate(-513.125 -102.63)" width="103.46" height="80.796" x="256.449" y="999.204" rx="0" ry="0" clip-path="url(#aM)" fill="#2c5aa0"/><path d="M743.876 585.025c0-96.85 86.11-175.362 192.333-175.362 106.222 0 192.332 78.512 192.332 175.362" transform="matrix(0 .5908 -.63976 0 117.6 299.444)" clip-path="url(#aN)" fill="#2c5aa0"/><path clip-path="url(#aO)" d="M500 291.667l-195.853 1.41-195.853 1.408L205 124.167l96.706-170.32 99.147 168.91z" transform="matrix(-.08685 .00085 .05098 .11826 .128 774.52)" fill="#3771c8"/><path transform="matrix(-.05942 .0021 .03488 .29126 4.72 891.37)" d="M500 291.667l-195.853 1.41-195.853 1.408L205 124.167l96.706-170.32 99.147 168.91z" clip-path="url(#aP)" fill="#2c5aa0"/><path transform="translate(-513.125 -102.63)" clip-path="url(#aQ)" fill="#2c5aa0" d="M536.266 888.31h76.29v73.118h-76.29z"/><path transform="matrix(1 0 0 1.01954 -513.125 -121.414)" clip-path="url(#aR)" fill="#3771c8" d="M536.266 888.31h76.29v73.118h-76.29z"/><path transform="translate(-513.125 -102.63)" clip-path="url(#aS)" fill="#2c5aa0" d="M539.445 931.785h93.49V1080h-93.49z"/><path transform="translate(-513.125 -102.63)" clip-path="url(#aT)" fill="#2c5aa0" d="M539.445 907.083h39.266v24.702h-39.265z"/><path transform="translate(-513.125 -102.63)" clip-path="url(#aU)" fill="#2c5aa0" d="M654.103 832.976h39.266V1080h-39.267z"/><path d="M1456 526c0 23.196-77.007 42-172 42s-172-18.804-172-42 77.007-42 172-42 172 18.804 172 42z" transform="matrix(.33495 0 0 .31106 -269.464 564.703)" clip-path="url(#aV)" fill="#2c5aa0"/><path transform="matrix(.4341 0 0 .31106 -396.79 555.62)" d="M1456 526c0 23.196-77.007 42-172 42s-172-18.804-172-42 77.007-42 172-42 172 18.804 172 42z" clip-path="url(#aW)" fill="#2c5aa0"/><rect transform="translate(-513.125 -102.63)" width="2.805" height="49.405" x="672.334" y="757.541" ry="8.36" rx="1.402" clip-path="url(#aX)" fill="#2c5aa0"/><path transform="matrix(.33495 0 0 .31106 -269.464 546.092)" d="M1456 526c0 23.196-77.007 42-172 42s-172-18.804-172-42 77.007-42 172-42 172 18.804 172 42z" clip-path="url(#aY)" fill="#2c5aa0"/><path transform="translate(-513.125 -102.63)" clip-path="url(#aZ)" fill="#2c5aa0" d="M718.013 958.74h41.304V1080h-41.304z"/><path transform="matrix(.105 .00103 -.06163 .14298 211.668 813.894)" d="M500 291.667l-195.853 1.41-195.853 1.408L205 124.167l96.706-170.32 99.147 168.91z" clip-path="url(#ba)" fill="#2c5aa0"/><path transform="translate(-513.125 -102.63)" clip-path="url(#bb)" fill="#2c5aa0" d="M774.108 978.303h41.304V1080h-41.304z"/><path transform="translate(-513.125 -102.63)" clip-path="url(#bc)" fill="#2c5aa0" d="M830.864 922.035h39.266V1080h-39.266z"/><path transform="matrix(.10024 .00074 -.00072 .1029 307.096 789.02)" d="M500 291.667l-195.853 1.41-195.853 1.408L205 124.167l96.706-170.32 99.147 168.91z" clip-path="url(#bd)" fill="#2c5aa0"/><path transform="matrix(-1 0 0 1 -513.125 -102.63)" clip-path="url(#be)" fill="#2c5aa0" d="M-1096.28 970.914h51.982V1080h-51.98z"/><path transform="matrix(-1 0 0 1 -513.125 -102.63)" clip-path="url(#bf)" fill="#2c5aa0" d="M-1096.28 952.733h21.833v18.18h-21.832z"/><path transform="matrix(-1 0 0 1 -513.125 -102.63)" clip-path="url(#bg)" fill="#2c5aa0" d="M-1163.593 990.676h51.98V1080h-51.98z"/><path transform="matrix(-1 0 0 1 -513.125 -102.63)" clip-path="url(#bh)" fill="#2c5aa0" d="M-150.334 935.08h49.363V1080h-49.364z"/><path d="M500 291.667l-195.853 1.41-195.853 1.408L205 124.167l96.706-170.32 99.147 168.91z" transform="matrix(-.1255 .00123 .07366 .17087 -370.893 781.996)" clip-path="url(#bi)" fill="#2c5aa0"/><path transform="matrix(-1 0 0 1 -513.125 -102.63)" clip-path="url(#bj)" fill="#2c5aa0" d="M-1163.593 990.676h51.98V1080h-51.98z"/><path transform="matrix(-1 0 0 1 -513.125 -102.63)" clip-path="url(#bk)" fill="#2c5aa0" d="M-1227.354 967.518h49.363V1080h-49.364z"/><path transform="matrix(-.1255 .00095 .07366 .13263 706.127 825.73)" d="M500 291.667l-195.853 1.41-195.853 1.408L205 124.167l96.706-170.32 99.147 168.91z" clip-path="url(#bl)" fill="#2c5aa0"/><path transform="matrix(-1 0 0 1 -513.125 -102.63)" clip-path="url(#bm)" fill="#2c5aa0" d="M-1298.22 974.866h51.98V1080h-51.98z"/><path transform="matrix(-1 0 0 1 -513.125 -102.63)" clip-path="url(#bn)" fill="#2c5aa0" d="M-1395.14 1014.243h81.587V1080h-81.587z"/><path transform="matrix(-1 0 0 1 -513.125 -102.63)" clip-path="url(#bo)" fill="#2c5aa0" d="M-1464.233 1043.71h45.027V1080h-45.027z"/><path transform="translate(-513.125 -102.63)" clip-path="url(#bp)" fill="#2c5aa0" d="M1489.21 1051.008h28.394V1080h-28.394z"/><path d="M500 291.667l-195.853 1.41-195.853 1.408L205 124.167l96.706-170.32 99.147 168.91z" transform="matrix(.07248 .00028 -.00052 .0389 968.39 936.896)" clip-path="url(#bq)" fill="#2c5aa0"/><path clip-path="url(#br)" transform="translate(71.875 -39.844)" fill="#2c5aa0" d="M848.915 856.576h3.885v66.726h-3.885z"/><path transform="matrix(.11184 .02338 -.02338 .11184 697.36 855.4)" d="M1882.4-740.24c-77.96 86.62 20.534 316.29-93.462 292.086-113.995-24.204 69.322-194.038 33.285-304.863C1786.187-863.842 1538.04-893.38 1616-980c77.96-86.62 133.382 157.053 247.377 181.257 113.995 24.204 263.648-175.928 299.685-65.103C2199.098-753.02 1960.36-826.86 1882.4-740.24z" clip-path="url(#bs)" fill="#2c5aa0"/><path transform="matrix(.07948 -.05818 .0323 .0441 799.588 955.302)" d="M1918-764.5c0 57.714-25.968 104.5-58 104.5s-58-46.786-58-104.5 25.968-104.5 58-104.5 58 46.786 58 104.5z" clip-path="url(#bt)" fill="#2c5aa0"/><path clip-path="url(#bu)" transform="translate(71.875 -39.844)" fill="#2c5aa0" d="M903.3 831.71h3.583v61.54H903.3z"/><path d="M1882.4-740.24c-77.96 86.62 20.534 316.29-93.462 292.086-113.995-24.204 69.322-194.038 33.285-304.863C1786.187-863.842 1538.04-893.38 1616-980c77.96-86.62 133.382 157.053 247.377 181.257 113.995 24.204 263.648-175.928 299.685-65.103C2199.098-753.02 1960.36-826.86 1882.4-740.24z" transform="matrix(.0071 .10514 -.10514 .0071 883.472 599.532)" clip-path="url(#bv)" fill="#2c5aa0"/><path d="M1918-764.5c0 57.714-25.968 104.5-58 104.5s-58-46.786-58-104.5 25.968-104.5 58-104.5 58 46.786 58 104.5z" transform="matrix(.07147 .05608 -.03112 .03967 820.24 715.206)" clip-path="url(#bw)" fill="#2c5aa0"/><path clip-path="url(#bx)" transform="translate(71.875 -39.844)" fill="#2c5aa0" d="M967.428 824.017h3.516v60.395h-3.516z"/><path transform="matrix(-.0326 .09814 -.09814 -.0326 1026.612 576.64)" d="M1882.4-740.24c-77.96 86.62 20.534 316.29-93.462 292.086-113.995-24.204 69.322-194.038 33.285-304.863C1786.187-863.842 1538.04-893.38 1616-980c77.96-86.62 133.382 157.053 247.377 181.257 113.995 24.204 263.648-175.928 299.685-65.103C2199.098-753.02 1960.36-826.86 1882.4-740.24z" clip-path="url(#by)" fill="#2c5aa0"/><path transform="matrix(.04408 .0775 -.043 .02447 926.192 658.21)" d="M1918-764.5c0 57.714-25.968 104.5-58 104.5s-58-46.786-58-104.5 25.968-104.5 58-104.5 58 46.786 58 104.5z" clip-path="url(#bz)" fill="#2c5aa0"/><path transform="translate(-513.125 -102.63)" clip-path="url(#bA)" fill="#2c5aa0" d="M951.368 908.07H994v51.382h-42.632z"/><path clip-path="url(#bB)" transform="matrix(.09976 .00044 -.00072 .06087 429.433 787.467)" d="M500 291.667l-195.853 1.41-195.853 1.408L205 124.167l96.706-170.32 99.147 168.91z" fill="#2c5aa0"/><path transform="translate(-513.125 -102.63)" clip-path="url(#bC)" fill="#2c5aa0" d="M951.368 908.07H994v51.382h-42.632z"/><path d="M500 291.667l-195.853 1.41-195.853 1.408L205 124.167l96.706-170.32 99.147 168.91z" transform="matrix(.09976 .00044 -.00072 .06087 429.433 787.467)" clip-path="url(#bD)" fill="#2c5aa0"/><path transform="translate(-513.125 -102.63)" clip-path="url(#bE)" fill="#2c5aa0" d="M830.864 922.035h39.266V1080h-39.266z"/><path clip-path="url(#bF)" d="M500 291.667l-195.853 1.41-195.853 1.408L205 124.167l96.706-170.32 99.147 168.91z" transform="matrix(.10024 .00074 -.00072 .1029 307.096 789.02)" fill="#2c5aa0"/><path transform="translate(-513.125 -102.63)" clip-path="url(#bG)" fill="#2c5aa0" d="M830.864 922.035h39.266V1080h-39.266z"/><path transform="matrix(.10024 .00074 -.00072 .1029 307.096 789.02)" d="M500 291.667l-195.853 1.41-195.853 1.408L205 124.167l96.706-170.32 99.147 168.91z" clip-path="url(#bH)" fill="#2c5aa0"/><path transform="translate(-513.125 -102.63)" clip-path="url(#bI)" fill="#2c5aa0" d="M718.013 958.74h41.304V1080h-41.304z"/><path clip-path="url(#bJ)" d="M500 291.667l-195.853 1.41-195.853 1.408L205 124.167l96.706-170.32 99.147 168.91z" transform="matrix(.105 .00103 -.06163 .14298 211.668 813.894)" fill="#2c5aa0"/><path transform="translate(-513.125 -102.63)" clip-path="url(#bK)" fill="#2c5aa0" d="M718.013 958.74h41.304V1080h-41.304z"/><path transform="matrix(.105 .00103 -.06163 .14298 211.668 813.894)" d="M500 291.667l-195.853 1.41-195.853 1.408L205 124.167l96.706-170.32 99.147 168.91z" clip-path="url(#bL)" fill="#2c5aa0"/><path transform="translate(-513.125 -102.63)" clip-path="url(#bM)" fill="#2c5aa0" d="M539.445 931.785h93.49V1080h-93.49z"/><path transform="translate(-513.125 -102.63)" clip-path="url(#bN)" fill="#2c5aa0" d="M539.445 907.083h39.266v24.702h-39.265z"/><path transform="translate(-513.125 -102.63)" clip-path="url(#bO)" fill="#2c5aa0" d="M539.445 931.785h93.49V1080h-93.49z"/><path transform="matrix(1 0 0 1.1735 -513.125 -260.003)" clip-path="url(#bP)" fill="#2c5aa0" d="M539.445 907.083h39.266v24.702h-39.265z"/><path clip-path="url(#bQ)" transform="translate(71.875 -39.844)" fill="#2c5aa0" d="M-584.76 986.93h892.206v2.712H-584.76z"/><path d="M500 291.667l-195.853 1.41-195.853 1.408L205 124.167l96.706-170.32 99.147 168.91z" transform="matrix(.2139 .0021 -.12556 .29126 -499.315 644.346)" clip-path="url(#bR)" fill="#2c5aa0"/><path transform="translate(-513.125 -102.63)" clip-path="url(#bS)" fill="#2c5aa0" d="M404.543 808.273h93.49V981.19h-93.49z"/><path transform="rotate(90 55.86 16.016)" clip-path="url(#bT)" fill="#2c5aa0" d="M988.037 563.825h29.176v5.495h-29.176z"/><path transform="rotate(90 55.86 16.016)" clip-path="url(#bU)" fill="#2c5aa0" d="M988.037 462.81h29.176v5.494h-29.176z"/><path transform="rotate(90 55.86 16.016)" clip-path="url(#bV)" fill="#2c5aa0" d="M988.037 462.81h29.176v5.494h-29.176z"/><path transform="rotate(90 55.86 16.016)" clip-path="url(#bW)" fill="#2c5aa0" d="M988.037 361.793h29.176v5.495h-29.176z"/><path transform="rotate(90 55.86 16.016)" clip-path="url(#bX)" fill="#2c5aa0" d="M988.037 361.793h29.176v5.495h-29.176z"/><path transform="rotate(90 55.86 16.016)" clip-path="url(#bY)" fill="#2c5aa0" d="M988.037 260.776h29.176v5.495h-29.176z"/><path transform="rotate(90 55.86 16.016)" clip-path="url(#bZ)" fill="#2c5aa0" d="M988.037 260.776h29.176v5.495h-29.176z"/><path transform="rotate(90 55.86 16.016)" clip-path="url(#ca)" fill="#2c5aa0" d="M988.037 159.76h29.176v5.495h-29.176z"/><path clip-path="url(#cb)" transform="matrix(.23867 .00105 -.00172 .14563 -133.922 662.644)" d="M500 291.667l-195.853 1.41-195.853 1.408L205 124.167l96.706-170.32 99.147 168.91z" fill="#2c5aa0"/><path transform="rotate(90 55.86 16.016)" clip-path="url(#cc)" fill="#2c5aa0" d="M988.037 159.76h29.176v5.495h-29.176z"/><rect rx="1.402" ry="8.36" y="718.018" x="449.887" height="49.405" width="2.805" clip-path="url(#cd)" transform="translate(-513.125 -102.63)" fill="#2c5aa0"/><path transform="rotate(90 55.86 16.016)" clip-path="url(#ce)" fill="#2c5aa0" d="M988.037 58.743h29.176v5.495h-29.176z"/><path clip-path="url(#cf)" transform="translate(-513.125 -102.63)" fill="#2c5aa0" d="M404.543 808.273h93.49V981.19h-93.49z"/><path transform="rotate(90 55.86 16.016)" clip-path="url(#cg)" fill="#2c5aa0" d="M988.037 58.743h29.176v5.495h-29.176z"/><path d="M500 291.667l-195.853 1.41-195.853 1.408L205 124.167l96.706-170.32 99.147 168.91z" transform="matrix(.23867 .00105 -.00172 .14563 -133.922 662.644)" clip-path="url(#ch)" fill="#2c5aa0"/><path transform="rotate(90 55.86 16.016)" clip-path="url(#ci)" fill="#2c5aa0" d="M988.037-42.273h29.176v5.495h-29.176z"/><path transform="rotate(90 55.86 16.016)" clip-path="url(#cj)" fill="#2c5aa0" d="M988.037-42.273h29.176v5.495h-29.176z"/><path transform="rotate(90 55.86 16.016)" clip-path="url(#ck)" fill="#2c5aa0" d="M988.037-143.29h29.176v5.495h-29.176z"/><path transform="rotate(90 55.86 16.016)" clip-path="url(#cl)" fill="#2c5aa0" d="M988.037-143.29h29.176v5.495h-29.176z"/><path transform="rotate(90 55.86 16.016)" clip-path="url(#cm)" fill="#2c5aa0" d="M988.037-244.306h29.176v5.495h-29.176z"/><path d="M-168 971.163h152.365s16.255-2.13 25.354 13.08c0 0 1.737 2.534-1.74 2.635h-175.988z" clip-path="url(#cn)" transform="translate(71.875 -39.844)" fill="#2c5aa0"/><path clip-path="url(#co)" transform="translate(71.875 -39.844)" fill="#2c5aa0" d="M-167.53 974.778H-.215v8.33H-167.53z"/><path d="M-152.518 987s-4.365-25.932 25.42-31.067h-457.675l.014 31z" clip-path="url(#cp)" transform="translate(71.875 -39.844)" fill="#2c5aa0"/><path d="M-15.635 971.163s16.255-2.13 25.354 13.08c0 0 1.737 2.534-1.74 2.635-.924.53-19.605-7.97-23.615-15.715z" clip-path="url(#cq)" transform="translate(71.875 -39.844)" fill="#2c5aa0"/><path d="M-183.627 987.044s-4.365-25.932 25.418-31.067" clip-path="url(#cr)" transform="translate(71.875 -39.844)" fill="#2c5aa0"/><path d="M-212.676 987.044s-4.365-25.932 25.42-31.067" clip-path="url(#cs)" transform="translate(71.875 -39.844)" fill="#2c5aa0"/><path d="M-240.817 987.044s-4.364-25.932 25.42-31.067" clip-path="url(#ct)" transform="translate(71.875 -39.844)" fill="#2c5aa0"/><path d="M-269.865 987.044s-4.365-25.932 25.42-31.067" clip-path="url(#cu)" transform="translate(71.875 -39.844)" fill="#2c5aa0"/><path d="M-296.3 987.044s-4.364-25.932 25.42-31.067" clip-path="url(#cv)" transform="translate(71.875 -39.844)" fill="#2c5aa0"/><path d="M-325.348 987.044s-4.365-25.932 25.42-31.067" clip-path="url(#cw)" transform="translate(71.875 -39.844)" fill="#2c5aa0"/><path d="M-353.49 987.044s-4.364-25.932 25.42-31.067" clip-path="url(#cx)" transform="translate(71.875 -39.844)" fill="#2c5aa0"/><path d="M-382.537 987.044s-4.365-25.932 25.418-31.067" clip-path="url(#cy)" transform="translate(71.875 -39.844)" fill="#2c5aa0"/><path d="M-408.972 987.044s-4.365-25.932 25.42-31.067" clip-path="url(#cz)" transform="translate(71.875 -39.844)" fill="#2c5aa0"/><path d="M-438.02 987.044s-4.365-25.932 25.418-31.067" clip-path="url(#cA)" transform="translate(71.875 -39.844)" fill="#2c5aa0"/><path d="M-466.16 987.044s-4.366-25.932 25.418-31.067" clip-path="url(#cB)" transform="translate(71.875 -39.844)" fill="#2c5aa0"/><path d="M-495.21 987.044s-4.364-25.932 25.42-31.067" clip-path="url(#cC)" transform="translate(71.875 -39.844)" fill="#2c5aa0"/><path d="M-521.644 987.044s-4.365-25.932 25.42-31.067" clip-path="url(#cD)" transform="translate(71.875 -39.844)" fill="#2c5aa0"/><path d="M-550.693 987.044s-4.364-25.932 25.42-31.067" clip-path="url(#cE)" transform="translate(71.875 -39.844)" fill="#2c5aa0"/><path d="M-578.833 987.044s-4.365-25.932 25.418-31.067" clip-path="url(#cF)" transform="translate(71.875 -39.844)" fill="#2c5aa0"/><path d="M-22.415 974.782v8.325" clip-path="url(#cG)" transform="translate(71.875 -39.844)" fill="#2c5aa0"/><path d="M-35.438 974.782v8.325" clip-path="url(#cH)" transform="translate(71.875 -39.844)" fill="#2c5aa0"/><path d="M-47.278 974.782v8.325" clip-path="url(#cI)" transform="translate(71.875 -39.844)" fill="#2c5aa0"/><path d="M-60.3 974.782v8.325" clip-path="url(#cJ)" transform="translate(71.875 -39.844)" fill="#2c5aa0"/><path d="M-72.14 974.782v8.325" clip-path="url(#cK)" transform="translate(71.875 -39.844)" fill="#2c5aa0"/><path d="M-85.164 974.782v8.325" clip-path="url(#cL)" transform="translate(71.875 -39.844)" fill="#2c5aa0"/><path d="M-97.004 974.782v8.325" clip-path="url(#cM)" transform="translate(71.875 -39.844)" fill="#2c5aa0"/><path d="M-110.027 974.782v8.325" clip-path="url(#cN)" transform="translate(71.875 -39.844)" fill="#2c5aa0"/><path d="M-121.866 974.782v8.325" clip-path="url(#cO)" transform="translate(71.875 -39.844)" fill="#2c5aa0"/><path d="M-133.706 974.782v8.325" clip-path="url(#cP)" transform="translate(71.875 -39.844)" fill="#2c5aa0"/><path d="M-146.73 974.782v8.325" clip-path="url(#cQ)" transform="translate(71.875 -39.844)" fill="#2c5aa0"/><path d="M-158.57 974.782v8.325" clip-path="url(#cR)" transform="translate(71.875 -39.844)" fill="#2c5aa0"/><path clip-path="url(#cS)" transform="translate(-513.125 -102.63)" fill="#2c5aa0" d="M909.67 955.5h93.492V1080h-93.49z"/><path clip-path="url(#cT)" d="M500 291.667l-195.853 1.41-195.853 1.408L205 124.167l96.706-170.32 99.147 168.91z" transform="matrix(.05942 .00264 -.03488 .367 377.01 869.01)" fill="#2c5aa0"/><path clip-path="url(#cU)" transform="matrix(-.05942 .00264 .03488 .367 509.573 869.01)" d="M500 291.667l-195.853 1.41-195.853 1.408L205 124.167l96.706-170.32 99.147 168.91z" fill="#2c5aa0"/><rect clip-path="url(#cV)" width="2.805" height="49.405" x="955.014" y="767.422" ry="8.36" rx="1.402" transform="translate(-513.125 -102.63)" fill="#2c5aa0"/><path clip-path="url(#cW)" transform="translate(-513.125 -102.63)" fill="#2c5aa0" d="M925.564 808.273h61.704v24.702h-61.704z"/><path clip-path="url(#cX)" transform="matrix(1 0 0 -1 -513.125 -102.63)" fill="#2c5aa0" d="M909.67-955.5h93.492V-831h-93.49z"/><path clip-path="url(#cY)" d="M500 291.667l-195.853 1.41-195.853 1.408L205 124.167l96.706-170.32 99.147 168.91z" transform="matrix(-.05942 -.00264 .03488 -.367 509.573 836.73)" fill="#2c5aa0"/><path clip-path="url(#cZ)" transform="matrix(.05942 -.00264 -.03488 -.367 377.01 836.73)" d="M500 291.667l-195.853 1.41-195.853 1.408L205 124.167l96.706-170.32 99.147 168.91z" fill="#2c5aa0"/><path transform="translate(-513.125 -102.63)" clip-path="url(#da)" fill="#2c5aa0" d="M909.67 955.5h93.492V1080h-93.49z"/><path transform="matrix(.05942 .00264 -.03488 .367 377.01 869.01)" d="M500 291.667l-195.853 1.41-195.853 1.408L205 124.167l96.706-170.32 99.147 168.91z" clip-path="url(#db)" fill="#2c5aa0"/><path d="M500 291.667l-195.853 1.41-195.853 1.408L205 124.167l96.706-170.32 99.147 168.91z" transform="matrix(-.05942 .00264 .03488 .367 509.573 869.01)" clip-path="url(#dc)" fill="#2c5aa0"/><rect transform="translate(-513.125 -102.63)" rx="1.402" ry="8.36" y="767.422" x="955.014" height="49.405" width="2.805" clip-path="url(#dd)" fill="#2c5aa0"/><path transform="translate(-513.125 -102.63)" clip-path="url(#de)" fill="#2c5aa0" d="M925.564 808.273h61.704v24.702h-61.704z"/><path transform="matrix(1 0 0 -1 -513.125 -102.63)" clip-path="url(#df)" fill="#2c5aa0" d="M909.67-955.5h93.492V-831h-93.49z"/><path transform="matrix(-.05942 -.00264 .03488 -.367 509.573 836.73)" d="M500 291.667l-195.853 1.41-195.853 1.408L205 124.167l96.706-170.32 99.147 168.91z" clip-path="url(#dg)" fill="#2c5aa0"/><path d="M500 291.667l-195.853 1.41-195.853 1.408L205 124.167l96.706-170.32 99.147 168.91z" transform="matrix(.05942 -.00264 -.03488 -.367 377.01 836.73)" clip-path="url(#dh)" fill="#2c5aa0"/><path clip-path="url(#di)" transform="translate(-513.125 -102.63)" fill="#2c5aa0" d="M909.67 955.5h93.492V1080h-93.49z"/><path clip-path="url(#dj)" d="M500 291.667l-195.853 1.41-195.853 1.408L205 124.167l96.706-170.32 99.147 168.91z" transform="matrix(.05942 .00264 -.03488 .367 377.01 869.01)" fill="#2c5aa0"/><path clip-path="url(#dk)" transform="matrix(-.05942 .00264 .03488 .367 509.573 869.01)" d="M500 291.667l-195.853 1.41-195.853 1.408L205 124.167l96.706-170.32 99.147 168.91z" fill="#2c5aa0"/><rect clip-path="url(#dl)" width="2.805" height="49.405" x="955.014" y="767.422" ry="8.36" rx="1.402" transform="translate(-513.125 -102.63)" fill="#2c5aa0"/><path clip-path="url(#dm)" transform="translate(-513.125 -102.63)" fill="#2c5aa0" d="M925.564 808.273h61.704v24.702h-61.704z"/><path clip-path="url(#dn)" transform="matrix(1 0 0 -1 -513.125 -102.63)" fill="#2c5aa0" d="M909.67-955.5h93.492V-831h-93.49z"/><path clip-path="url(#do)" d="M500 291.667l-195.853 1.41-195.853 1.408L205 124.167l96.706-170.32 99.147 168.91z" transform="matrix(-.05942 -.00264 .03488 -.367 509.573 836.73)" fill="#2c5aa0"/><path clip-path="url(#dp)" transform="matrix(.05942 -.00264 -.03488 -.367 377.01 836.73)" d="M500 291.667l-195.853 1.41-195.853 1.408L205 124.167l96.706-170.32 99.147 168.91z" fill="#2c5aa0"/><path clip-path="url(#dq)" transform="matrix(-1 0 0 1 -513.125 -102.63)" fill="#2c5aa0" d="M-1227.354 967.518h49.363V1080h-49.364z"/><path clip-path="url(#dr)" d="M500 291.667l-195.853 1.41-195.853 1.408L205 124.167l96.706-170.32 99.147 168.91z" transform="matrix(-.1255 .00095 .07366 .13263 706.127 825.73)" fill="#2c5aa0"/><path transform="matrix(-1 0 0 1 -513.125 -102.63)" clip-path="url(#ds)" fill="#2c5aa0" d="M-1227.354 967.518h49.363V1080h-49.364z"/><path transform="matrix(-.1255 .00095 .07366 .13263 706.127 825.73)" d="M500 291.667l-195.853 1.41-195.853 1.408L205 124.167l96.706-170.32 99.147 168.91z" clip-path="url(#dt)" fill="#2c5aa0"/><path transform="translate(-513.125 -102.63)" clip-path="url(#du)" fill="#2c5aa0" d="M1489.21 1051.008h28.394V1080h-28.394z"/><path clip-path="url(#dv)" transform="matrix(.07248 .00028 -.00052 .0389 968.39 936.896)" d="M500 291.667l-195.853 1.41-195.853 1.408L205 124.167l96.706-170.32 99.147 168.91z" fill="#2c5aa0"/><path transform="translate(-513.125 -102.63)" clip-path="url(#dw)" fill="#2c5aa0" d="M1489.21 1051.008h28.394V1080h-28.394z"/><path d="M500 291.667l-195.853 1.41-195.853 1.408L205 124.167l96.706-170.32 99.147 168.91z" transform="matrix(.07248 .00028 -.00052 .0389 968.39 936.896)" clip-path="url(#dx)" fill="#2c5aa0"/><path clip-path="url(#dy)" transform="translate(71.875 -39.844)" fill="#2c5aa0" d="M-3585 827.214h3014.286v190H-3585z"/><path clip-path="url(#dz)" d="M1380-636c0-167.895 208.635-304 466-304s466 136.105 466 304h-466z" transform="matrix(-5.24515 0 0 .57894 12905.175 1345.575)" fill="#2c5aa0"/><path transform="translate(-1447.668 -159.71)" clip-path="url(#dA)" fill="#2c5aa0" d="M536.266 888.31h76.29v73.118h-76.29z"/><path transform="matrix(.18568 .0008 -.00134 .1133 -929.334 695.147)" d="M500 291.667l-195.853 1.41-195.853 1.408L205 124.167l96.706-170.32 99.147 168.91z" clip-path="url(#dB)" fill="#2c5aa0"/><path transform="translate(-1447.668 -159.71)" clip-path="url(#dC)" fill="#2c5aa0" d="M536.266 888.31h76.29v73.118h-76.29z"/><path transform="translate(-1447.668 -159.71)" clip-path="url(#dD)" fill="#2c5aa0" d="M536.266 888.31h76.29v73.118h-76.29z"/><path transform="matrix(.18568 .0008 -.00134 .1133 -929.334 695.147)" d="M500 291.667l-195.853 1.41-195.853 1.408L205 124.167l96.706-170.32 99.147 168.91z" clip-path="url(#dE)" fill="#2c5aa0"/><path clip-path="url(#dF)" d="M500 291.667l-195.853 1.41-195.853 1.408L205 124.167l96.706-170.32 99.147 168.91z" transform="matrix(.18568 .0008 -.00134 .1133 -929.334 695.147)" fill="#2c5aa0"/><path transform="translate(-1447.668 -159.71)" clip-path="url(#dG)" fill="#2c5aa0" d="M539.445 907.083h39.266v24.702h-39.265z"/><path transform="matrix(.10024 .00074 -.00072 .1029 -838.876 757.655)" d="M500 291.667l-195.853 1.41-195.853 1.408L205 124.167l96.706-170.32 99.147 168.91z" clip-path="url(#dH)" fill="#2c5aa0"/><path clip-path="url(#dI)" d="M500 291.667l-195.853 1.41-195.853 1.408L205 124.167l96.706-170.32 99.147 168.91z" transform="matrix(.10024 .00074 -.00072 .1029 -791.733 760.512)" fill="#2c5aa0"/><path transform="matrix(.10024 .00074 -.00072 .1029 -673.16 764.797)" d="M500 291.667l-195.853 1.41-195.853 1.408L205 124.167l96.706-170.32 99.147 168.91z" clip-path="url(#dJ)" fill="#2c5aa0"/><path transform="translate(-1447.668 -159.71)" clip-path="url(#dK)" fill="#2c5aa0" d="M539.445 907.083h39.266v24.702h-39.265z"/><path transform="translate(-1447.668 -159.71)" clip-path="url(#dL)" fill="#2c5aa0" d="M539.445 907.083h39.266v24.702h-39.265z"/><path d="M500 291.667l-195.853 1.41-195.853 1.408L205 124.167l96.706-170.32 99.147 168.91z" transform="matrix(.13828 .00135 -.08117 .1883 -1014.25 738)" clip-path="url(#dM)" fill="#2c5aa0"/><path clip-path="url(#dN)" transform="translate(-1511.954 -135.423)" fill="#2c5aa0" d="M834.69 896.214h69.558V955.5H834.69z"/><path clip-path="url(#dO)" transform="matrix(-1 0 0 1 -1558.93 -159.71)" fill="#2c5aa0" d="M536.266 888.31h76.29v73.118h-76.29z"/><path clip-path="url(#dP)" transform="matrix(-1 0 0 1 -1558.93 -159.71)" fill="#2c5aa0" d="M834.69 896.214h69.558V955.5H834.69z"/><path clip-path="url(#dQ)" d="M500 291.667l-195.853 1.41-195.853 1.408L205 124.167l96.706-170.32 99.147 168.91z" transform="matrix(-.18568 .0008 .00134 .1133 -2077.265 695.147)" fill="#2c5aa0"/><path clip-path="url(#dR)" transform="matrix(-1 0 0 1 -1558.93 -159.71)" fill="#2c5aa0" d="M536.266 888.31h76.29v73.118h-76.29z"/><path clip-path="url(#dS)" d="M500 291.667l-195.853 1.41-195.853 1.408L205 124.167l96.706-170.32 99.147 168.91z" transform="matrix(-.18568 .0008 .00134 .1133 -2077.265 695.147)" fill="#2c5aa0"/><path clip-path="url(#dT)" transform="matrix(-1 0 0 1 -1558.93 -159.71)" fill="#2c5aa0" d="M539.445 907.083h39.266v24.702h-39.265z"/><path clip-path="url(#dU)" d="M500 291.667l-195.853 1.41-195.853 1.408L205 124.167l96.706-170.32 99.147 168.91z" transform="matrix(-.105 .00103 .06163 .14298 -2283.723 756.816)" fill="#2c5aa0"/><path transform="matrix(-.10024 .00074 .00072 .1029 -2214.866 760.512)" d="M500 291.667l-195.853 1.41-195.853 1.408L205 124.167l96.706-170.32 99.147 168.91z" clip-path="url(#dV)" fill="#2c5aa0"/><path clip-path="url(#dW)" d="M500 291.667l-195.853 1.41-195.853 1.408L205 124.167l96.706-170.32 99.147 168.91z" transform="matrix(-.10024 .00074 .00072 .1029 -2333.437 764.797)" fill="#2c5aa0"/><path transform="matrix(-.105 .00103 .06163 .14298 -2283.723 756.816)" d="M500 291.667l-195.853 1.41-195.853 1.408L205 124.167l96.706-170.32 99.147 168.91z" clip-path="url(#dX)" fill="#2c5aa0"/><path clip-path="url(#dY)" transform="matrix(-1 0 0 1 -1558.93 -159.71)" fill="#2c5aa0" d="M539.445 907.083h39.266v24.702h-39.265z"/><path transform="matrix(-1 0 0 1 -1683.216 -139.71)" clip-path="url(#dZ)" fill="#2c5aa0" d="M536.266 888.31h76.29v73.118h-76.29z"/><path transform="matrix(-1 0 0 1 -418.93 -159.71)" clip-path="url(#ea)" fill="#2c5aa0" d="M536.266 888.31h76.29v73.118h-76.29z"/><path transform="matrix(-.18568 .0008 .00134 .1133 -937.265 695.147)" d="M500 291.667l-195.853 1.41-195.853 1.408L205 124.167l96.706-170.32 99.147 168.91z" clip-path="url(#eb)" fill="#2c5aa0"/><path transform="matrix(-1 0 0 1 -418.93 -159.71)" clip-path="url(#ec)" fill="#2c5aa0" d="M536.266 888.31h76.29v73.118h-76.29z"/><path transform="matrix(-1 0 0 1 -418.93 -159.71)" clip-path="url(#ed)" fill="#2c5aa0" d="M536.266 888.31h76.29v73.118h-76.29z"/><path transform="matrix(-.18568 .0008 .00134 .1133 -937.265 695.147)" d="M500 291.667l-195.853 1.41-195.853 1.408L205 124.167l96.706-170.32 99.147 168.91z" clip-path="url(#ee)" fill="#2c5aa0"/><path transform="matrix(-1 0 0 1 -418.93 -159.71)" clip-path="url(#ef)" fill="#2c5aa0" d="M539.445 907.083h39.266v24.702h-39.265z"/><path transform="matrix(-.105 .00103 .06163 .14298 -1903.723 756.816)" d="M500 291.667l-195.853 1.41-195.853 1.408L205 124.167l96.706-170.32 99.147 168.91z" clip-path="url(#eg)" fill="#2c5aa0"/><path transform="matrix(-.10024 .00074 .00072 .1029 -1027.723 757.655)" d="M500 291.667l-195.853 1.41-195.853 1.408L205 124.167l96.706-170.32 99.147 168.91z" clip-path="url(#eh)" fill="#2c5aa0"/><path clip-path="url(#ei)" d="M500 291.667l-195.853 1.41-195.853 1.408L205 124.167l96.706-170.32 99.147 168.91z" transform="matrix(-.10024 .00074 .00072 .1029 -1074.866 760.512)" fill="#2c5aa0"/><path transform="matrix(-.10024 .00074 .00072 .1029 -1953.437 764.797)" d="M500 291.667l-195.853 1.41-195.853 1.408L205 124.167l96.706-170.32 99.147 168.91z" clip-path="url(#ej)" fill="#2c5aa0"/><path clip-path="url(#ek)" d="M500 291.667l-195.853 1.41-195.853 1.408L205 124.167l96.706-170.32 99.147 168.91z" transform="matrix(-.105 .00103 .06163 .14298 -1903.723 756.816)" fill="#2c5aa0"/><path transform="matrix(-1 0 0 1 -418.93 -159.71)" clip-path="url(#el)" fill="#2c5aa0" d="M539.445 907.083h39.266v24.702h-39.265z"/><path d="M500 291.667l-195.853 1.41-195.853 1.408L205 124.167l96.706-170.32 99.147 168.91z" transform="matrix(-.13828 .00135 .08117 .1883 -852.348 738)" clip-path="url(#em)" fill="#2c5aa0"/><path clip-path="url(#en)" transform="matrix(-1 0 0 1 -543.216 -139.71)" fill="#2c5aa0" d="M536.266 888.31h76.29v73.118h-76.29z"/><path clip-path="url(#eo)" transform="matrix(-1 0 0 1 -1114.645 -135.423)" fill="#2c5aa0" d="M834.69 896.214h69.558V955.5H834.69z"/><path transform="translate(-3341.445 -159.71)" clip-path="url(#ep)" fill="#2c5aa0" d="M536.266 888.31h76.29v73.118h-76.29z"/><path transform="translate(-3341.445 -159.71)" clip-path="url(#eq)" fill="#2c5aa0" d="M834.69 896.214h69.558V955.5H834.69z"/><path transform="matrix(.18568 .0008 -.00134 .1133 -2823.11 695.147)" d="M500 291.667l-195.853 1.41-195.853 1.408L205 124.167l96.706-170.32 99.147 168.91z" clip-path="url(#er)" fill="#2c5aa0"/><path transform="translate(-3341.445 -159.71)" clip-path="url(#es)" fill="#2c5aa0" d="M536.266 888.31h76.29v73.118h-76.29z"/><path transform="translate(-3341.445 -159.71)" clip-path="url(#et)" fill="#2c5aa0" d="M536.266 888.31h76.29v73.118h-76.29z"/><path transform="matrix(.18568 .0008 -.00134 .1133 -2823.11 695.147)" d="M500 291.667l-195.853 1.41-195.853 1.408L205 124.167l96.706-170.32 99.147 168.91z" clip-path="url(#eu)" fill="#2c5aa0"/><path clip-path="url(#ev)" d="M500 291.667l-195.853 1.41-195.853 1.408L205 124.167l96.706-170.32 99.147 168.91z" transform="matrix(.18568 .0008 -.00134 .1133 -2823.11 695.147)" fill="#2c5aa0"/><path transform="translate(-3341.445 -159.71)" clip-path="url(#ew)" fill="#2c5aa0" d="M539.445 907.083h39.266v24.702h-39.265z"/><path clip-path="url(#ex)" d="M500 291.667l-195.853 1.41-195.853 1.408L205 124.167l96.706-170.32 99.147 168.91z" transform="matrix(.10024 .00074 -.00072 .1029 -2685.51 760.512)" fill="#2c5aa0"/><path transform="matrix(.10024 .00074 -.00072 .1029 -2566.94 764.797)" d="M500 291.667l-195.853 1.41-195.853 1.408L205 124.167l96.706-170.32 99.147 168.91z" clip-path="url(#ey)" fill="#2c5aa0"/><path transform="translate(-3341.445 -159.71)" clip-path="url(#ez)" fill="#2c5aa0" d="M539.445 907.083h39.266v24.702h-39.265z"/><path transform="translate(-3341.445 -159.71)" clip-path="url(#eA)" fill="#2c5aa0" d="M539.445 907.083h39.266v24.702h-39.265z"/><path clip-path="url(#eB)" transform="translate(-3217.16 -139.71)" fill="#2c5aa0" d="M536.266 888.31h76.29v73.118h-76.29z"/><path clip-path="url(#eC)" transform="translate(-3405.73 -135.423)" fill="#2c5aa0" d="M834.69 896.214h69.558V955.5H834.69z"/><path transform="matrix(-1 0 0 1 -809.216 -119.71)" clip-path="url(#eD)" fill="#2c5aa0" d="M536.266 888.31h76.29v73.118h-76.29z"/><path clip-path="url(#eE)" transform="matrix(-1 0 0 1 -1071.216 -139.71)" fill="#2c5aa0" d="M536.266 888.31h76.29v73.118h-76.29z"/><path transform="matrix(-1 0 0 1 -1071.216 -201.71)" clip-path="url(#eF)" fill="#2c5aa0" d="M536.266 888.31h76.29v73.118h-76.29z"/><path clip-path="url(#eG)" transform="matrix(-1 0 0 1 -769.216 -161.71)" fill="#2c5aa0" d="M536.266 888.31h76.29v73.118h-76.29z"/><path clip-path="url(#eH)" transform="translate(-3247.668 -159.71)" fill="#2c5aa0" d="M536.266 888.31h76.29v73.118h-76.29z"/><path clip-path="url(#eI)" d="M500 291.667l-195.853 1.41-195.853 1.408L205 124.167l96.706-170.32 99.147 168.91z" transform="matrix(.18568 .0008 -.00134 .1133 -2729.334 695.147)" fill="#2c5aa0"/><path clip-path="url(#eJ)" transform="translate(-3247.668 -159.71)" fill="#2c5aa0" d="M536.266 888.31h76.29v73.118h-76.29z"/><path clip-path="url(#eK)" transform="translate(-3247.668 -159.71)" fill="#2c5aa0" d="M536.266 888.31h76.29v73.118h-76.29z"/><path clip-path="url(#eL)" d="M500 291.667l-195.853 1.41-195.853 1.408L205 124.167l96.706-170.32 99.147 168.91z" transform="matrix(.18568 .0008 -.00134 .1133 -2729.334 695.147)" fill="#2c5aa0"/><path clip-path="url(#eM)" transform="translate(-3247.668 -159.71)" fill="#2c5aa0" d="M539.445 907.083h39.266v24.702h-39.265z"/><path clip-path="url(#eN)" d="M500 291.667l-195.853 1.41-195.853 1.408L205 124.167l96.706-170.32 99.147 168.91z" transform="matrix(.10024 .00074 -.00072 .1029 -2638.876 757.655)" fill="#2c5aa0"/><path transform="matrix(.10024 .00074 -.00072 .1029 -2591.733 760.512)" d="M500 291.667l-195.853 1.41-195.853 1.408L205 124.167l96.706-170.32 99.147 168.91z" clip-path="url(#eO)" fill="#2c5aa0"/><path clip-path="url(#eP)" d="M500 291.667l-195.853 1.41-195.853 1.408L205 124.167l96.706-170.32 99.147 168.91z" transform="matrix(.10024 .00074 -.00072 .1029 -2473.16 764.797)" fill="#2c5aa0"/><path clip-path="url(#eQ)" transform="translate(-3247.668 -159.71)" fill="#2c5aa0" d="M539.445 907.083h39.266v24.702h-39.265z"/><path clip-path="url(#eR)" transform="translate(-3247.668 -159.71)" fill="#2c5aa0" d="M539.445 907.083h39.266v24.702h-39.265z"/><path clip-path="url(#eS)" transform="matrix(.13828 .00135 -.08117 .1883 -2814.25 738)" d="M500 291.667l-195.853 1.41-195.853 1.408L205 124.167l96.706-170.32 99.147 168.91z" fill="#2c5aa0"/><path clip-path="url(#eT)" transform="matrix(-1 0 0 1 -2218.93 -159.71)" fill="#2c5aa0" d="M536.266 888.31h76.29v73.118h-76.29z"/><path clip-path="url(#eU)" d="M500 291.667l-195.853 1.41-195.853 1.408L205 124.167l96.706-170.32 99.147 168.91z" transform="matrix(-.18568 .0008 .00134 .1133 -2737.265 695.147)" fill="#2c5aa0"/><path clip-path="url(#eV)" transform="matrix(-1 0 0 1 -2218.93 -159.71)" fill="#2c5aa0" d="M536.266 888.31h76.29v73.118h-76.29z"/><path clip-path="url(#eW)" transform="matrix(-1 0 0 1 -2218.93 -159.71)" fill="#2c5aa0" d="M536.266 888.31h76.29v73.118h-76.29z"/><path clip-path="url(#eX)" d="M500 291.667l-195.853 1.41-195.853 1.408L205 124.167l96.706-170.32 99.147 168.91z" transform="matrix(-.18568 .0008 .00134 .1133 -2737.265 695.147)" fill="#2c5aa0"/><path transform="matrix(-.18568 .0008 .00134 .1133 -2737.265 695.147)" d="M500 291.667l-195.853 1.41-195.853 1.408L205 124.167l96.706-170.32 99.147 168.91z" clip-path="url(#eY)" fill="#2c5aa0"/><path clip-path="url(#eZ)" transform="matrix(-1 0 0 1 -2218.93 -159.71)" fill="#2c5aa0" d="M539.445 907.083h39.266v24.702h-39.265z"/><path clip-path="url(#fa)" d="M500 291.667l-195.853 1.41-195.853 1.408L205 124.167l96.706-170.32 99.147 168.91z" transform="matrix(-.10024 .00074 .00072 .1029 -2827.723 757.655)" fill="#2c5aa0"/><path transform="matrix(-.10024 .00074 .00072 .1029 -2874.866 760.512)" d="M500 291.667l-195.853 1.41-195.853 1.408L205 124.167l96.706-170.32 99.147 168.91z" clip-path="url(#fb)" fill="#2c5aa0"/><path clip-path="url(#fc)" transform="matrix(-1 0 0 1 -2218.93 -159.71)" fill="#2c5aa0" d="M539.445 907.083h39.266v24.702h-39.265z"/><path clip-path="url(#fd)" transform="matrix(-1 0 0 1 -2218.93 -159.71)" fill="#2c5aa0" d="M539.445 907.083h39.266v24.702h-39.265z"/><path transform="matrix(-1 0 0 1 -2729.216 -139.71)" clip-path="url(#fe)" fill="#2c5aa0" d="M536.266 888.31h76.29v73.118h-76.29z"/><path transform="matrix(1.33835 0 0 .82813 -4708.98 616.56)" d="M5442.857 278.715c0 50.495-85.066 91.43-190 91.43s-190-40.935-190-91.43c0-50.494 85.066-91.428 190-91.428s190 40.934 190 91.428z" clip-path="url(#ff)" fill="#2c5aa0"/><path transform="matrix(.18568 .0008 -.00134 .1133 5.21 752.225)" d="M500 291.667l-195.853 1.41-195.853 1.408L205 124.167l96.706-170.32 99.147 168.91z" clip-path="url(#fg)" fill="#3771c8"/></g></svg>