<svg xmlns="http://www.w3.org/2000/svg" viewBox="-3872 4873.8 475.5 226.8"><path fill="#229AFF" d="M-3690.5 5039.5c-17.2 22.4-43.2 35.3-71.5 35.3-49.6 0-90-40.4-90-90s40.4-90 90-90c35.7 0 69.6 11.5 97.8 33.2l74.9 58.5-26.6 34.1h25.4l29.3-37.5-90.7-70.9c-31.8-24.5-69.8-37.4-110-37.4-60.7 0-110 49.3-110 110s49.3 110 110 110c34.5 0 66.3-15.7 87.3-43.1l47.5-60.8 4.8-6.1h-25.3l-42.9 54.7z"/><path fill="#F2F2F2" d="M-3508.2 4874.8c-34.5 0-66.3 15.7-87.3 43.1l-46.9 60-5.4 7h25.3l42.8-54.7c17.2-22.4 43.2-35.3 71.5-35.3 49.6 0 90 40.4 90 90s-40.4 90-90 90c-35.7 0-69.6-11.5-97.8-33.2l-74.9-58.5 26.6-34.1h-25.4l-29.3 37.5 90.7 70.9c31.8 24.5 69.8 37.4 110 37.4 60.7 0 110-49.3 110-110s-49.2-110.1-109.9-110.1z"/></svg>