<svg xmlns="http://www.w3.org/2000/svg" xmlns:xlink="http://www.w3.org/1999/xlink" width="2224" height="85.599"><defs><linearGradient xlink:href="#a" id="e" gradientUnits="userSpaceOnUse" x1="1507.107" y1="1015.014" x2="1672.418" y2="771.237"/><linearGradient id="a"><stop offset="0" stop-color="#1e3c69"/><stop offset="1" stop-color="#ffb402"/></linearGradient><clipPath id="d"><path fill="url(#linearGradient19708)" d="M-3000 880h7920v200h-7920z"/></clipPath><linearGradient id="b"><stop offset="0" stop-color="#e2e2e2"/><stop offset="1" stop-color="#818181"/></linearGradient><clipPath id="c"><path fill="url(#linearGradient19732)" d="M-3000 880h7920v200h-7920z"/></clipPath></defs><path transform="matrix(.3318 0 0 .3318 526.92 -272.648)" d="M-1343.836 931.02h2734.644s152.263-20.116 237.492 123.565c0 0 16.28 23.947-16.28 24.905h-3153.566c-38.992 3.58-144.105-135.275 197.71-148.47z" clip-path="url(#c)" fill="#1e3c69"/><path d="M1034.255 71.816v1.888H1.245s-.262-.418-.595-1.888" fill="#f2f2f2"/><path transform="matrix(.3318 0 0 .3318 526.92 -272.648)" d="M1388.73 931.02s153.573-20.116 239.535 123.565c0 0 16.42 23.947-16.42 24.905-8.733 5-185.23-75.306-223.114-148.47z" clip-path="url(#d)" fill="url(#e)"/><path fill="#1e3c69" d="M1248.465 42.587h4.146V85.6h-4.145z"/><path fill="#1e3c69" d="M1250.538 0l23.32 23.32-23.32 23.32-23.32-23.32z"/><path d="M1249.96 22.65c-1.472 1.823-2.77 3.32-3.61 4.04-.618.527-2.046 1.666-3.272 1.666-3.082 0-5.12-2.376-5.12-5.46s2.05-5.45 5.132-5.45c2.298 0 3.784 1.23 4.91 2.085 1.112.847 4.236 3.336 4.236 3.336l.392.29-1.25 1.51 1.06-.016 1.33-1.614c-3.375-2.66-1.076-.843-5.54-4.347-1.943-1.39-2.835-2.05-5.14-2.05-3.738 0-5.94 2.522-5.94 6.262 0 3.74 2.19 6.258 5.927 6.258 1.148 0 2.352-.587 3.577-1.675 1.226-1.088 2.516-2.487 3.936-4.332z" fill="#229aff"/><path d="M1250.587 23.157c1.473-1.823 2.77-3.32 3.61-4.04.62-.527 2.047-1.666 3.273-1.666 3.082 0 5.12 2.377 5.12 5.46 0 3.085-2.05 5.45-5.132 5.45-2.298 0-3.784-1.23-4.908-2.084-1.114-.846-4.238-3.335-4.238-3.335l-.392-.29 1.25-1.51-1.06.017-1.33 1.614c3.375 2.662 1.076.844 5.54 4.348 1.943 1.39 2.835 2.048 5.14 2.048 3.738 0 5.94-2.52 5.94-6.26 0-3.74-2.19-6.26-5.927-6.26-1.148 0-2.352.588-3.577 1.676-1.226 1.088-2.516 2.487-3.936 4.332z" fill="#f2f2f2"/><path d="M1249.96 22.65c-1.472 1.823-2.77 3.32-3.61 4.04-.618.527-2.046 1.666-3.272 1.666-3.082 0-5.12-2.376-5.12-5.46s2.05-5.45 5.132-5.45c2.298 0 3.784 1.23 4.91 2.085 1.112.847 4.236 3.336 4.236 3.336l.392.29-1.25 1.51 1.06-.016 1.33-1.614c-3.375-2.66-1.076-.843-5.54-4.347-1.943-1.39-2.835-2.05-5.14-2.05-3.738 0-5.94 2.522-5.94 6.262 0 3.74 2.19 6.258 5.927 6.258 1.148 0 2.352-.587 3.577-1.675 1.226-1.088 2.516-2.487 3.936-4.332z" fill="#0f5087"/><path d="M1250.587 23.157c1.473-1.823 2.77-3.32 3.61-4.04.62-.527 2.047-1.666 3.273-1.666 3.082 0 5.12 2.377 5.12 5.46 0 3.085-2.05 5.45-5.132 5.45-2.298 0-3.784-1.23-4.908-2.084-1.114-.846-4.238-3.335-4.238-3.335l-.392-.29 1.25-1.51-1.06.017-1.33 1.614c3.375 2.662 1.076.844 5.54 4.348 1.943 1.39 2.835 2.048 5.14 2.048 3.738 0 5.94-2.52 5.94-6.26 0-3.74-2.19-6.26-5.927-6.26-1.148 0-2.352.588-3.577 1.676-1.226 1.088-2.516 2.487-3.936 4.332z" fill="#5d7182"/></svg>