<?xml version="1.0" encoding="utf-8"?>
<!-- Generator: Adobe Illustrator 19.2.1, SVG Export Plug-In . SVG Version: 6.00 Build 0)  -->
<svg version="1.1" id="Layer_1" xmlns="http://www.w3.org/2000/svg" xmlns:xlink="http://www.w3.org/1999/xlink" x="0px" y="0px"
	 viewBox="0 0 1200 1200" style="enable-background:new 0 0 1200 1200;" xml:space="preserve">
<style type="text/css">
	.st0{opacity:5.000000e-02;}
	.st1{fill:#64B5F6;}
	.st2{fill:#FFFFFF;}
	.st3{fill:none;}
</style>
<g class="st0">
	<polygon class="st1" points="558.6,733.6 504.6,702.4 564,600 635.9,600 	"/>
	<polygon class="st2" points="641.4,466.4 695.4,497.6 635.9,600 564,600 	"/>
	<g>
		<path class="st2" d="M739.3,831.4c39.3,22.7,84.9,35.8,133.6,35.8c147.6,0,267.2-119.6,267.2-267.2s-119.7-267.2-267.3-267.2
			c-98.9,0-185.2,53.7-231.4,133.5l54,31.2c35.4-61.2,101.6-102.4,177.4-102.4c113.2,0,204.8,91.7,204.8,204.8
			s-91.7,204.8-204.8,204.8c-37.3,0-72.3-10-102.4-27.4L473.4,606l49-84.9h-72l-62.2,107.8l54,31.2"/>
		<line class="st3" x1="739.3" y1="831.4" x2="442.2" y2="659.8"/>
	</g>
	<path class="st1" d="M757.8,540l-297-171.4c-39.3-22.7-84.9-35.8-133.6-35.8C179.6,332.8,60,452.4,60,600s119.6,267.2,267.2,267.2
		c98.9,0,185.2-53.7,231.4-133.5l-54-31.2C469.2,763.7,403,804.8,327.2,804.8c-113.2,0-204.8-91.7-204.8-204.8
		S214,395.2,327.2,395.2c37.3,0,72.3,10,102.4,27.4l0,0l297,171.4l-48.9,85h72l62.2-107.8L757.8,540z"/>
</g>
</svg>
