<?xml version="1.0" encoding="utf-8"?>
<!-- Generator: Adobe Illustrator 19.2.1, SVG Export Plug-In . SVG Version: 6.00 Build 0)  -->
<svg version="1.1" id="Layer_1" xmlns="http://www.w3.org/2000/svg" xmlns:xlink="http://www.w3.org/1999/xlink" x="0px" y="0px"
	 viewBox="0 0 1200 1200" style="enable-background:new 0 0 1200 1200;" xml:space="preserve">
<style type="text/css">
	.st0{fill:#64B5F6;}
	.st1{fill:#FFFFFF;}
	.st2{fill:none;}
</style>
<g>
	<polygon class="st0" points="563.2,718.8 515.2,691 568,600 631.9,600 	"/>
	<polygon class="st1" points="636.8,481.2 684.8,509 631.9,600 568,600 	"/>
	<g>
		<path class="st1" d="M723.8,805.7c34.9,20.2,75.5,31.8,118.8,31.8c131.2,0,237.5-106.3,237.5-237.5S973.7,362.5,842.5,362.5
			c-87.9,0-164.6,47.7-205.7,118.7l48,27.7c31.5-54.4,90.3-91,157.7-91c100.6,0,182.1,81.5,182.1,182.1s-81.5,182.1-182.1,182.1
			c-33.2,0-64.3-8.9-91-24.4l-264-152.4l43.6-75.5h-64l-55.3,95.8l48,27.7"/>
		<line class="st2" x1="723.8" y1="805.7" x2="459.7" y2="653.2"/>
	</g>
	<path class="st0" d="M740.3,546.7l-264-152.4c-34.9-20.2-75.5-31.8-118.8-31.8C226.3,362.5,120,468.8,120,600
		s106.3,237.5,237.5,237.5c87.9,0,164.6-47.7,205.7-118.7l-48-27.7c-31.5,54.4-90.3,91-157.7,91c-100.6,0-182.1-81.5-182.1-182.1
		s81.5-182.1,182.1-182.1c33.2,0,64.3,8.9,91,24.4l0,0l264,152.4L669,670.3h64l55.3-95.8L740.3,546.7z"/>
</g>
</svg>
